<?xml version="1.0" encoding="utf-8"?>
<!-- Generator: Adobe Illustrator 22.1.0, SVG Export Plug-In . SVG Version: 6.00 Build 0)  -->
<svg version="1.1" id="Layer_1" xmlns="http://www.w3.org/2000/svg" xmlns:xlink="http://www.w3.org/1999/xlink" x="0px" y="0px"
	 viewBox="0 0 154 161" style="enable-background:new 0 0 154 161;" xml:space="preserve">
<style type="text/css">
	.st0{fill:url(#SVGID_1_);}
	.st1{fill:#BFB063;}
	.st2{fill:url(#SVGID_2_);}
	.st3{fill:url(#SVGID_3_);}
	.st4{fill:url(#SVGID_4_);}
	.st5{fill:url(#SVGID_5_);}
	.st6{fill:url(#SVGID_6_);}
	.st7{fill:url(#SVGID_7_);}
	.st8{fill:url(#SVGID_8_);}
	.st9{fill:url(#SVGID_9_);}
	.st10{fill:url(#SVGID_10_);}
	.st11{fill:#352616;}
</style>
<g>
	
		<linearGradient id="SVGID_1_" gradientUnits="userSpaceOnUse" x1="68.0833" y1="71.9856" x2="-31.0395" y2="-54.2817" gradientTransform="matrix(0.9992 -3.893342e-02 -3.893342e-02 -0.9992 57.9028 98.9131)">
		<stop  offset="0" style="stop-color:#BFB063"/>
		<stop  offset="1" style="stop-color:#D9D08C"/>
	</linearGradient>
	<path class="st0" d="M128.7,81.4c-1.2,0-2.1-0.3-3.1-0.5c-0.4-0.1-0.8-0.2-1.3-0.3c-0.1-1.9-0.5-3.6-0.8-5.2
		c0.2-0.4,0.1-0.7,0.1-0.8c0-0.1-0.1-0.2,0-0.3c-4.3-13.8-12.7-24-25.1-30.2c-0.2-0.1-0.4-0.2-0.7-0.1c-0.7,0-1.5-0.4-2.3-0.8
		c-0.5-0.3-1-0.5-1.6-0.7c-3.2-1.1-6.5-1.8-10.8-2.2c-0.1-0.4-0.4-0.9-0.6-1.2c-0.1-0.2,0-0.4,0-0.6c0.1,0,0.4,0.1,0.5,0.2
		c0.6,0.2,1.2,0.4,2.1,0.4c1.2-0.2,1.7-0.8,2.1-1.4c0.1-0.1,0.1-0.2,0.2-0.3c0.4-0.4,0.4-1,0.2-1.5c-0.1-0.1-0.1-0.3-0.2-0.5
		c0-1-0.4-2-1.1-2.6c-1.1-1.4-3.2-2.3-5.4-2.1c-0.4,0-0.8,0.1-1.3,0.2c-0.4-1.7-1.3-3.2-2.5-4.2c-0.3-0.2-0.5-0.4-0.9-0.5
		c-0.2,0-0.4-0.1-0.6,0c-0.4-0.1-0.8,0.2-1.2,0.4l-0.1,0.2c-1,1-2.1,2.2-2.6,3.9c0,0,0,0,0,0.1c-1.8-0.3-3.6,0.5-5,2.1
		c-1.3,1.5-1.9,3.4-1.6,5.3c0,0.3,0.2,0.6,0.5,0.9l0.2,0.1c0.3,0.2,0.6,0.6,1.1,0.8c0.3,0.1,0.5,0.2,0.8,0.1
		c0.9-0.1,1.4-0.8,1.7-1.1c0,0,0,0,0-0.1c0.4,0,0.8,0.2,0.9,0.5c0.1,0.1,0.2,0.2,0.1,0.3c-0.2,0.3-0.7,0.6-1,1.2
		c0,0.1,0,0.2-0.1,0.3l0,0.1c-13.8,2.6-25.6,11.7-32,24.4c-0.1,0.1-0.1,0.3-0.3,0.4c-0.1,0.2-0.2,0.4-0.2,0.6l0,0
		c-0.5,0.9-0.8,1.9-1.2,2.8c-0.2,0.3-0.5,0.5-0.5,0.9c-0.1,0.3-0.1,0.6-0.2,1c-0.2,0.4-0.2,0.9-0.4,1.1c-0.2,0.6-0.5,1-0.7,1.6
		l-0.1,0.3c-0.1,0.3-0.2,0.6-0.1,0.9c0,0.1,0.1,0.2,0,0.3c-0.2,0.9-0.4,1.8-0.5,2.5c0,0.2-0.1,0.3-0.2,0.5c-0.1,0.3-0.3,0.7-0.5,1
		c-0.2,0.5-0.1,0.9,0.1,1.3c-0.2,1.3-0.2,2.6-0.3,3.7c-0.3,0-0.7,0.2-1.2,0.2c-0.6,0.1-1.3,0.2-1.8,0.4c-0.4,0-0.8,0.2-1.1,0.5
		c0,0.1-0.1,0.1-0.1,0.2c-0.3,0.2-0.6,0.7-0.6,1.2l0,0.2c0.1,0.7,0.7,1.3,1.4,1.4c1,0,1.7,0.2,2.5,0.4c0.2,0,0.4,0.2,0.7,0.2
		c0,0.1,0,0.2-0.1,0.4c0,0.7,0.2,1.4,0.4,2.1c-0.1,0.2-0.2,0.4-0.2,0.7c-0.2,1.5,0.2,3.2,0.9,4.6c0.3,0.7,0.8,1.2,1.3,1.5
		c0.2,0.1,0.3,0.4,0.5,0.5c0.3,0.8,0.5,1.6,0.9,2.5c0,0.3,0.2,0.7,0.3,1.1c0.1,0.2,0.2,0.5,0.4,0.8s0.2,0.5,0.3,0.8
		c0.4,1.2,1,2.3,1.8,3.6c2.7,4.9,6.3,9.2,10.7,12.8c1.1,1,2.4,2,3.6,3.1c0.3,0.1,0.6,0.3,0.9,0.3c0,0,0.1,0,0.2,0
		c0.8,0.5,1.6,1,2.2,1.3c0.4,0.3,0.8,0.5,1.3,0.8c3.2,1.9,6.6,3.4,11.5,5c0.5,0.2,1.1,0.1,1.4-0.1c0.9,0.1,1.8,0.2,2.8,0.4
		c1.6,0.3,3.3,0.6,5,0.5c0.5,0,1.1-0.1,1.6-0.1c0,0.1,0,0.3,0,0.4c0,0.3,0,0.6,0.1,1c0.2,1,0.6,1.8,1.1,2.3c0.3,0.2,0.6,0.4,1.1,0.4
		l0.1,0c0.7,0,1.3-0.6,1.3-1.3c0-1.2,0.2-2.3,0.5-3.4c3.1-0.2,5.9-1,8.3-1.8c8-2.6,15.1-7.1,20.7-13.1c2-2.2,4.9-5.7,6.9-9.7
		c0.3-0.7,0.6-1.4,0.9-2.1c0.2-0.6,0.4-1.1,0.7-1.7c2.3-5.1,2.9-10.8,3.4-17c0.2-0.1,0.3,0,0.5-0.1c1.2-0.2,2.3-0.4,3.4-0.6
		c0.4-0.1,0.8-0.4,0.9-0.8c0.2-0.3,0.3-0.6,0.4-1l0-0.1C130,81.9,129.5,81.3,128.7,81.4z"/>
	<g>
		<path class="st1" d="M83.4,33.3L83.4,33.3c-0.2-0.1-0.4-0.2-0.5-0.3c-0.4-0.3-0.8,0-1,0.2c-0.5-0.1-0.9-0.1-1.4,0
			c-0.3-0.2-0.7-0.3-0.9-0.1C79,33.6,78.4,34.4,78,35c-0.1-0.1-0.3-0.2-0.5-0.3c0-0.2,0.2-0.4,0.2-0.5c0.6,0.3,1.3-0.2,1.1-0.8
			c0,0,0,0,0-0.1s0-0.2,0.1-0.3c-0.1-1.1-0.4-2.2-1-3.1c-0.1-0.2-0.3-0.2-0.5-0.3l0,0c-0.1-0.1-0.2-0.2-0.2-0.3c0-0.1,0-0.2-0.1-0.2
			c-0.1-0.8-1.2-0.9-1.4-0.1c0,0.2-0.1,0.3-0.2,0.5c-0.2-0.1-0.6-0.2-0.8,0c-1.3,0.7-1.6,2.1-1.8,3.4c-0.2,0-0.3,0-0.4,0.2
			c-0.1,0.2-0.2,0.3-0.5,0.3c0-0.4-0.7-0.7-1-0.5c-0.2,0.2-0.5,0.3-0.6,0.5c-0.1-0.1-0.3-0.2-0.3-0.4c-0.3-0.2-0.7-0.2-1,0
			c-0.9,0.8-1.6,1.7-2.1,2.8c-0.2,0.5,0.2,1.3,0.9,1c1.2-0.4,2.7-0.8,3.9-0.3c0.2,0.1,0.5,0.3,0.7,0.3c0,0,0,0,0.1,0
			c0.2,0.1,0.3,0.1,0.4,0.1c-0.3,0.8-0.3,1.7-0.3,2.7c0,0.4,0.2,0.5,0.5,0.7c0,0.1,0.1,0.2,0,0.3c0.1,0.3,0.4,0.5,0.7,0.5
			c-0.2,0.1-0.4,0-0.7,0.1c-1,0-0.9,1.6,0,1.5c0.6,0,1.2-0.1,1.9-0.2c1.5,0.4,2.9,0,4.5,0c0.6-0.1,0.9-0.9,0.6-1.2
			c0.2-0.5,0-1.1-0.6-1c-0.1,0-0.1,0-0.2,0.1c0.6-0.8,1.2-1.8,1.5-2.9l0-0.1c0.4-0.5,0.8-1.2,1.3-1.6c0.2-0.1,0.4-0.1,0.5-0.3
			c0.5,0.3,0.9,0.7,1.2,1c0.3,0.4,0.9,0.2,1.2-0.2l0,0c0.6,0.3,1.1-0.1,1.1-0.7C86.3,33.6,85,32.9,83.4,33.3z"/>
		<path class="st1" d="M79.9,129.1c-24.1,1-44.6-18-45.5-42.1c-1-24.1,18-44.6,42.1-45.5c24.2-0.9,44.6,18,45.5,42.1
			C122.9,107.7,104,128.1,79.9,129.1z M76.7,46.6c-21.3,0.8-38,18.9-37.2,40.2c0.8,21.3,18.9,38,40.2,37.2
			c21.3-0.8,38-18.9,37.2-40.2C116,62.5,97.9,45.8,76.7,46.6z"/>
		
			<radialGradient id="SVGID_2_" cx="20.7278" cy="12.8816" r="38.6096" gradientTransform="matrix(0.9992 -3.893342e-02 -3.893342e-02 -0.9992 57.9028 98.9131)" gradientUnits="userSpaceOnUse">
			<stop  offset="0.4847" style="stop-color:#748B81"/>
			<stop  offset="0.5908" style="stop-color:#778D81"/>
			<stop  offset="0.6918" style="stop-color:#839482"/>
			<stop  offset="0.7909" style="stop-color:#96A185"/>
			<stop  offset="0.8887" style="stop-color:#B0B388"/>
			<stop  offset="0.9847" style="stop-color:#D3CC8C"/>
			<stop  offset="1" style="stop-color:#D9D08C"/>
		</radialGradient>
		<circle class="st2" cx="78.1" cy="85.2" r="38.6"/>
		
			<ellipse transform="matrix(0.1683 -0.9857 0.9857 0.1683 -17.5396 149.6971)" class="st1" cx="79.9" cy="85.2" rx="26.2" ry="26.2"/>
		<path class="st1" d="M98.3,61c-0.7,0.4-1.3,0.9-2,1.4c-0.6,0.3-1.2,0.7-1.8,1.1c-1.9,1.1-3.8,2.6-5.3,4.1c-0.1,0-0.3-0.1-0.4,0
			c-0.5,0.2-1,0.6-1.5,1c-0.4-0.4-1.3-0.1-1.2,0.6c0,0.2-0.1,0.4-0.1,0.7c-0.1,0.4,0,0.6,0.3,0.8c-0.1,0.5-0.1,1,0,1.4l0,0
			c0,0.2-0.1,0.4-0.2,0.5c-0.1,0.3,0,0.4,0.1,0.6c0,0.1-0.1,0.3-0.1,0.4c-0.1,0.6,0.4,1,0.9,0.9c0.3,0.2,0.8,0.3,1.1,0
			c0.1-0.2,0.3-0.4,0.4-0.4c0.1,0,0.3,0,0.4-0.2c1.6-1.8,3.4-3.7,4.8-5.6c1.5-1.6,3-3.1,4.3-4.8c0,0,0,0,0-0.1
			c0.4-0.3,0.8-0.6,1.2-0.9C99.9,61.8,99.2,60.5,98.3,61z"/>
		<path class="st1" d="M70.2,69.3c-0.3-0.7-1-0.7-1.4-0.1c-0.4-0.2-0.7-0.1-1-0.1c-0.4-0.1-0.8-0.2-1.1-0.4
			c-0.5-0.5-1.1-0.9-1.7-1.2c-0.1-0.1-0.2-0.2-0.2-0.4c-0.2-0.3-0.7-0.4-1.1-0.2c-1.5-0.9-3-1.6-4.3-2.7c-0.6-0.5-1-1-1.6-1.3l0-0.1
			c0.1-0.6-0.7-0.9-1-0.4l0,0l0,0c-0.7-0.2-1.1,0.6-0.8,1.2c0.5,0.8,1.2,1.5,1.8,2.2c0.4,0.6,0.8,1.1,1.1,1.6
			c0.3,0.6,0.8,0.4,1.2,0.1c0.2,0.1,0.4,0.2,0.6,0.3c-0.1,0.2-0.2,0.4,0,0.6c0.8,2,3.5,3.3,5.3,4.2c0,0.4,0.4,0.7,0.7,0.7
			c0.1,0.3,0.5,0.5,0.8,0.4c-0.1,0.3,0,0.5,0.1,0.8c0,0.3,0.3,0.5,0.6,0.5c0,0,0,0,0.1,0.1c0,0.3,0.2,0.6,0.6,0.8
			c0.2,0,0.4,0.1,0.5,0.2c0.5,0.2,1-0.3,0.9-0.8C70.1,73.4,70.9,71,70.2,69.3z"/>
		
			<linearGradient id="SVGID_3_" gradientUnits="userSpaceOnUse" x1="8.6183" y1="7.6888" x2="6.3932" y2="-8.5733" gradientTransform="matrix(0.9992 -3.893342e-02 -3.893342e-02 -0.9992 57.9028 98.9131)">
			<stop  offset="0" style="stop-color:#352616"/>
			<stop  offset="0.2459" style="stop-color:#372816"/>
			<stop  offset="0.4217" style="stop-color:#3D2D19"/>
			<stop  offset="0.5756" style="stop-color:#49371D"/>
			<stop  offset="0.717" style="stop-color:#5A4623"/>
			<stop  offset="0.8497" style="stop-color:#735C2C"/>
			<stop  offset="0.9745" style="stop-color:#967D38"/>
			<stop  offset="1" style="stop-color:#9F853B"/>
		</linearGradient>
		<path class="st3" d="M72.3,96.8c0-0.5-0.4-0.8-0.8-0.7c0,0,0-0.1-0.1-0.1c0.1-0.5,0.1-1,0.1-1.5c-0.1-0.8-1.1-0.9-1.5-0.4
			c-0.1,0.2-0.3,0.4-0.4,0.5c-0.7,0.3-1.2,1.2-1.6,1.9l-0.1,0.1l0,0l0,0c-0.5,0.3-0.8,0.8-1.2,1.1c-0.1,0-0.2,0.1-0.2,0.2
			c-1.7,1.4-3,3.1-4.2,5c-0.5,0.5-1,1.1-1.5,1.8c-0.3-0.1-0.7,0-1,0.3c-0.2,0.4-0.4,0.7-0.6,1.1c0,0.1-0.1,0.2-0.1,0.3
			c0,0,0,0,0,0.1c-0.1,0.2-0.2,0.4-0.3,0.7c-0.2,0.3-0.5,0.5-0.6,0.8c-0.5,0.7,0.4,1.7,1,1c0-0.1,0.1-0.1,0.1-0.2
			c0.2,0,0.3,0.1,0.5-0.1c0.5-0.3,1-0.9,1.3-1.3c0.2-0.2,0.5-0.4,0.7-0.6c0.2-0.2,0.5-0.3,0.7-0.6c0.2,0.3,0.7,0.5,1.1,0.1
			c0.8-0.9,1.5-1.9,2.2-3c0.3-0.2,0.7-0.6,1-0.9c0.3,0.1,0.6,0.2,0.9,0.1c0.5-0.3,0.8-0.7,1.2-1.1c0.3,0.1,0.5,0.2,0.8,0
			c0.8-0.5,1.2-1.2,1.8-1.8c0.1-0.1,0.2-0.2,0.2-0.3c0-0.1,0.1-0.2,0.1-0.3c0.1-0.2,0.1-0.4,0.1-0.5C72.1,97.8,72.3,97.3,72.3,96.8z
			"/>
		<polygon class="st1" points="37.3,85.3 69,76.7 79.6,85.2 38.8,86.4 		"/>
		
			<linearGradient id="SVGID_4_" gradientUnits="userSpaceOnUse" x1="-6.2558" y1="22.7396" x2="8.8933" y2="2.9688" gradientTransform="matrix(0.9992 -3.893342e-02 -3.893342e-02 -0.9992 57.9028 98.9131)">
			<stop  offset="0" style="stop-color:#352616"/>
			<stop  offset="0.2459" style="stop-color:#372816"/>
			<stop  offset="0.4217" style="stop-color:#3D2D19"/>
			<stop  offset="0.5756" style="stop-color:#49371D"/>
			<stop  offset="0.717" style="stop-color:#5A4623"/>
			<stop  offset="0.8497" style="stop-color:#735C2C"/>
			<stop  offset="0.9745" style="stop-color:#967D38"/>
			<stop  offset="1" style="stop-color:#9F853B"/>
		</linearGradient>
		<polygon class="st4" points="38,86.7 79.6,85.2 69.7,93.5 38.6,87.8 		"/>
		<polygon class="st1" points="75.6,46.3 69,76.7 79.6,85.2 77.2,47.2 		"/>
		<polygon class="st1" points="87.8,75.3 79.7,84 79.6,85.2 122,83.2 		"/>
		<polygon class="st1" points="78.2,85.8 70.5,94.5 80.3,127.5 78.8,85.5 		"/>
		
			<linearGradient id="SVGID_5_" gradientUnits="userSpaceOnUse" x1="25.8145" y1="11.5103" x2="24.2739" y2="-14.6808" gradientTransform="matrix(0.9992 -3.893342e-02 -3.893342e-02 -0.9992 57.9028 98.9131)">
			<stop  offset="0" style="stop-color:#352616"/>
			<stop  offset="0.2459" style="stop-color:#372816"/>
			<stop  offset="0.4217" style="stop-color:#3D2D19"/>
			<stop  offset="0.5756" style="stop-color:#49371D"/>
			<stop  offset="0.717" style="stop-color:#5A4623"/>
			<stop  offset="0.8497" style="stop-color:#735C2C"/>
			<stop  offset="0.9745" style="stop-color:#967D38"/>
			<stop  offset="1" style="stop-color:#9F853B"/>
		</linearGradient>
		<polygon class="st5" points="78.2,85.8 79,87.1 80.5,125.9 88.1,93.6 79.6,85.2 		"/>
		
			<linearGradient id="SVGID_6_" gradientUnits="userSpaceOnUse" x1="112.1318" y1="5.4953" x2="93.8119" y2="22.6205" gradientTransform="matrix(0.9857 0.1683 0.1683 -0.9857 -1.6193 84.6106)">
			<stop  offset="0" style="stop-color:#352616"/>
			<stop  offset="0.2459" style="stop-color:#372816"/>
			<stop  offset="0.4217" style="stop-color:#3D2D19"/>
			<stop  offset="0.5756" style="stop-color:#49371D"/>
			<stop  offset="0.717" style="stop-color:#5A4623"/>
			<stop  offset="0.8497" style="stop-color:#735C2C"/>
			<stop  offset="0.9745" style="stop-color:#967D38"/>
			<stop  offset="1" style="stop-color:#9F853B"/>
		</linearGradient>
		<path class="st6" d="M79.6,85.2l-0.9,0.4l9.1,7.5l24.4-6.6l7.7-3.6C120,82.9,80.1,85.4,79.6,85.2z"/>
		
			<linearGradient id="SVGID_7_" gradientUnits="userSpaceOnUse" x1="24.4338" y1="48.7793" x2="25.4785" y2="25.6214" gradientTransform="matrix(0.9992 -3.893342e-02 -3.893342e-02 -0.9992 57.9028 98.9131)">
			<stop  offset="0" style="stop-color:#352616"/>
			<stop  offset="0.2459" style="stop-color:#372816"/>
			<stop  offset="0.4217" style="stop-color:#3D2D19"/>
			<stop  offset="0.5756" style="stop-color:#49371D"/>
			<stop  offset="0.717" style="stop-color:#5A4623"/>
			<stop  offset="0.8497" style="stop-color:#735C2C"/>
			<stop  offset="0.9745" style="stop-color:#967D38"/>
			<stop  offset="1" style="stop-color:#9F853B"/>
		</linearGradient>
		<path class="st7" d="M78.8,85.5c0.6-0.4-0.8-40.4-0.8-40.4l9.4,30.9L78.8,85.5z"/>
		
			<linearGradient id="SVGID_8_" gradientUnits="userSpaceOnUse" x1="71.3435" y1="93.0785" x2="101.2094" y2="57.613" gradientTransform="matrix(0.9857 0.1683 -0.1683 0.9857 14.8699 -11.9922)">
			<stop  offset="0" style="stop-color:#352616"/>
			<stop  offset="0.2459" style="stop-color:#372816"/>
			<stop  offset="0.4217" style="stop-color:#3D2D19"/>
			<stop  offset="0.5756" style="stop-color:#49371D"/>
			<stop  offset="0.717" style="stop-color:#5A4623"/>
			<stop  offset="0.8497" style="stop-color:#735C2C"/>
			<stop  offset="0.9745" style="stop-color:#967D38"/>
			<stop  offset="1" style="stop-color:#9F853B"/>
		</linearGradient>
		<path class="st8" d="M99.4,61.6c-1.8,1.8-3.6,3.9-5.2,5.9c-1.6,2-4.3,3.8-5.4,6.1c-0.1,0.3-0.1,0.6,0.1,0.7l0,0.1
			c-0.1,0.1-0.2,0.3-0.3,0.5c-0.2,0.1-0.4,0-0.6,0.1c-0.8,0.3-0.6,1.3,0,1.5c2.4,0.7,4.8,1.7,6.1-1c0.7-1.6,1.2-3.1,2-4.7
			c0.7-1,1.2-2.1,1.8-3.2c0.7-1.3,1.3-2.5,2.1-3.8c0.1-0.3,0.1-0.5,0-0.7c0.1-0.2,0.4-0.3,0.5-0.6C100.9,61.9,100,61.1,99.4,61.6z
			 M91.2,75.9c0-0.2,0.1-0.3-0.1-0.5c0-0.1,0.1-0.3,0.1-0.4c0.1,0.1,0.2,0.1,0.3,0.1c0.1,0.3,0.5,0.6,0.9,0.3
			C92,75.8,91.6,75.9,91.2,75.9z"/>
		
			<linearGradient id="SVGID_9_" gradientUnits="userSpaceOnUse" x1="5.433" y1="32.3589" x2="5.7753" y2="24.1425" gradientTransform="matrix(0.9992 -3.893342e-02 -3.893342e-02 -0.9992 57.9028 98.9131)">
			<stop  offset="0" style="stop-color:#352616"/>
			<stop  offset="0.2459" style="stop-color:#372816"/>
			<stop  offset="0.4217" style="stop-color:#3D2D19"/>
			<stop  offset="0.5756" style="stop-color:#49371D"/>
			<stop  offset="0.717" style="stop-color:#5A4623"/>
			<stop  offset="0.8497" style="stop-color:#735C2C"/>
			<stop  offset="0.9745" style="stop-color:#967D38"/>
			<stop  offset="1" style="stop-color:#9F853B"/>
		</linearGradient>
		<path class="st9" d="M69.6,76.2c-0.1-0.1-0.2-0.2-0.3-0.2c-0.6-0.7-1.4-1.2-2.3-1.3l0,0c-0.8-1.3-2-2.2-3.2-3c0-0.1,0-0.2,0-0.2
			c0.1-0.7-0.7-1.1-1.2-0.8c-1.3-1.6-3-3.1-3.8-5c-0.3-0.7-1.2-0.6-1.4,0c-0.6-0.9-1.1-1.9-1.4-2.9c-0.2-0.5-1.1-0.4-1.1,0.2
			c0,0.1,0,0.1,0.1,0.2l0,0.1c0.3,1.6,1.3,3.2,2.1,4.5c0.7,0.9,1.4,1.8,1.8,2.9c0.4,0.9,0.5,1.6,1.2,2.3c0.1,0.1,0.2,0.1,0.3,0.2
			c0,0.5,0,1,0.3,1.5c0.1,0.3,0.4,0.5,0.7,0.5c0,0.3,0.2,0.5,0.5,0.7c0,0.1-0.1,0.3-0.1,0.4c-0.1,0.5,0.2,0.8,0.6,0.9l0,0.1
			c-0.1,0.6,0.6,1.2,1.2,0.8c0.1-0.1,0.1-0.1,0.2-0.2c0.2,0.1,0.4,0.3,0.6,0.2c1.2,0.1,2.3-0.1,3.4-0.3c0.1,0.1,0.2,0.1,0.3,0.2
			c0.5,0.3,0.9,0,1.1-0.5C69.5,77.3,70,76.8,69.6,76.2z"/>
		<path class="st1" d="M99.1,103.4L99.1,103.4c-0.4-0.4-0.8-0.8-1.1-1.2c-0.8-0.8-1.8-1.4-2.8-2.1c-0.1-0.1-0.1-0.2-0.2-0.2
			c-0.5-1-1.2-2-2.5-2.1c-0.1,0-0.2,0.1-0.3,0c-0.3-0.6-0.7-1-1.4-1.5c-0.3-0.2-0.4-0.4-0.7-0.5c0.1-0.3,0-0.5-0.1-0.8
			c0-0.4-0.5-0.6-0.8-0.4l0,0c0-0.4-0.6-0.7-0.9-0.3c0,0.1-0.1,0.1-0.1,0.2c-0.1,0.2-0.2,0.4-0.1,0.6c-0.3,1.5-0.5,2.8-0.4,4.3
			c0,0.6,0.8,0.8,1.1,0.4c0.4,0.3,0.8,0.4,1.3,0.5c0.2,0.1,0.5,0.3,0.7,0.3c0.1,0.1,0.2,0.2,0.3,0.2c0.2,0.1,0.3,0.2,0.5,0.3
			c0.3,0.5,0.7,0.8,1.2,1c0.4,0.5,0.9,1,1.5,1.2c0.3,0.1,0.6,0.1,0.8-0.1c0.2,0.3,0.5,0.6,0.8,0.9c0.3,0.4,0.9,0.3,1.1-0.1
			c0,0,0,0,0.1,0c0.2,0.1,0.5,0.3,0.8,0.4c0.6,0.6,1.3,1.2,2,1.9c0.4,0.4,1.4,0.1,1.3-0.6C100.9,104.6,100.1,104,99.1,103.4z"/>
		<path class="st1" d="M68.7,94c-0.5-0.1-1-0.2-1.5-0.2c0.3-0.7-0.6-1.2-1.2-0.9c-0.2,0.1-0.3,0.1-0.5,0.3l-0.1,0
			c-0.3-0.2-0.7-0.2-0.9,0.1c-0.1,0.1-0.1,0.2-0.2,0.3c-0.1,0-0.1,0-0.1,0.1l-0.1,0l0,0c-0.1,0-0.1,0-0.2,0c-0.7,0-0.9,0.8-0.6,1.2
			c-0.4,0.6-0.6,1.5-0.8,2.2c0,0.1,0,0.2-0.1,0.3l0,0.1l0,0c0,0.1-0.1,0.2-0.2,0.3l0,0c-0.1,0.2-0.3,0.4-0.4,0.5
			c-0.1,0.1-0.1,0.3-0.2,0.4l0,0l0,0c-1,1.2-1.9,2.6-2.5,4.1c-0.9,1.6-1.8,3.1-2.7,4.6c-0.4,0.7,0.7,1.5,1.3,0.9
			c0.1-0.2,0.4-0.4,0.5-0.7c0.2-0.1,0.4-0.1,0.6-0.4c0.3-0.5,0.6-1,0.9-1.5c0.8-0.9,1.4-1.9,2.2-2.8c0.1-0.1,0.3,0,0.3-0.2
			c1-1.1,2-2.3,3-3.4c1.2-1,2.5-2,3.4-3.3c0.3-0.1,0.6-0.5,0.5-0.8C69.4,95,69.3,94.2,68.7,94z"/>
		
			<linearGradient id="SVGID_10_" gradientUnits="userSpaceOnUse" x1="33.8046" y1="6.8198" x2="40.3096" y2="-8.2445" gradientTransform="matrix(0.9992 -3.893342e-02 -3.893342e-02 -0.9992 57.9028 98.9131)">
			<stop  offset="0" style="stop-color:#352616"/>
			<stop  offset="0.2459" style="stop-color:#372816"/>
			<stop  offset="0.4217" style="stop-color:#3D2D19"/>
			<stop  offset="0.5756" style="stop-color:#49371D"/>
			<stop  offset="0.717" style="stop-color:#5A4623"/>
			<stop  offset="0.8497" style="stop-color:#735C2C"/>
			<stop  offset="0.9745" style="stop-color:#967D38"/>
			<stop  offset="1" style="stop-color:#9F853B"/>
		</linearGradient>
		<path class="st10" d="M102.5,105.5c-0.5-0.7-1.1-1.3-1.7-1.8c0-0.2,0-0.3-0.1-0.5c-0.2-0.3-0.8-0.9-1.2-1.6c0.1-0.2,0.2-0.4,0-0.6
			c-0.4-1.2-1-2.2-1.8-3.2c-0.2-0.2-0.4-0.4-0.8-0.3c0,0,0-0.1-0.1-0.1c-0.4-0.9-0.9-1.7-1.5-2.5c-0.3-0.8-0.6-1.5-0.7-2.3
			c-0.1-0.4-0.6-0.6-0.9-0.5l0,0c-0.1-0.3-0.5-0.4-0.9-0.3c-1.2,0.1-2.5,0.4-3.7,0.5c-0.6,0.1-1,0.9-0.4,1.2c0.4,0.3,0.7,0.6,1,1
			c0,0.4,0.4,0.9,0.9,0.7c0,0.2,0,0.3,0.2,0.4c0.3,0.2,0.6,0.5,1,0.9c0.6,1.2,1.5,2.2,2.6,2.9l0.1,0c0.8,1.1,1.7,2.2,3,2.7
			c1.1,1.6,2.9,2.6,3.9,4.3c0.3,0.5,1,0.5,1.3-0.1l0,0C102.9,106.1,102.7,105.8,102.5,105.5z"/>
		<path class="st11" d="M45.3,118.1c-0.1,0-0.1,0-0.2,0c-0.1,0-0.1,0-0.2,0.1c-0.1,0-0.1,0-0.1,0.1c0,0,0,0-0.1,0c0,0,0,0-0.1,0
			c-0.2,0-0.3,0-0.4,0.1c0.1,0,0.1,0,0.3,0.1c0.1,0,0.2,0,0.2,0c0.1,0.1,0.1,0.2,0,0.3c0,0.2-0.1,0.4-0.1,0.5s0,0.1-0.1,0.1
			c0,0.1,0,0.2,0,0.2c-0.1,0.2-0.2,0.5-0.1,0.7c-0.1,0.1-0.1,0.2-0.1,0.2c-0.1,0.3-0.1,0.6-0.1,0.8c-0.1,0.3-0.2,0.5-0.2,0.6
			s-0.1,0.1-0.1,0.1s-0.1,0-0.1-0.1s-0.1-0.2,0-0.4c-0.1-0.2,0-0.4-0.1-0.4c-0.1,0-0.1-0.1-0.2-0.1c0-0.1-0.1-0.2,0-0.4
			c-0.1-0.1,0-0.3-0.1-0.4c-0.1-0.2,0-0.3-0.1-0.4c-0.1-0.1-0.2-0.2-0.2-0.2c0-0.1,0-0.2,0-0.3c0,0-0.1-0.1-0.1-0.2
			c-0.1-0.1-0.1-0.2-0.1-0.2c0-0.1,0-0.1,0-0.2c0-0.1,0.1-0.1,0.2-0.2c0.1,0,0.1-0.1,0.1-0.1s0,0,0-0.1c-0.1,0.1-0.2,0.1-0.3,0
			c-0.2,0-0.3-0.1-0.3,0c-0.2,0.1-0.3,0-0.5,0.1s-0.3,0-0.4,0c0,0,0,0,0-0.1c-0.1,0.1-0.2,0.1-0.3,0c0,0,0.1,0.1,0.2,0.1
			c0.1,0,0.2,0.1,0.3,0.1c0.2,0.5,0.3,1,0.5,1.2l0,0.1c0,0.1,0,0.2-0.1,0.4c0,0.2-0.1,0.4-0.1,0.5s0,0.1-0.1,0.1
			c-0.1,0.3-0.1,0.7-0.3,1c0,0.1,0,0.1-0.1,0.1c-0.1-0.3-0.3-0.7-0.3-0.9c0,0-0.1-0.1-0.2-0.2c-0.1-0.1-0.1-0.2,0-0.3l-0.1-0.1
			c0-0.1-0.1-0.2-0.1-0.2c-0.2-0.4-0.3-0.7-0.4-0.8c-0.1-0.2,0-0.3,0-0.3c-0.1-0.1-0.1-0.3-0.1-0.4c0-0.1,0-0.2,0.1-0.3
			c0.1-0.1,0.2-0.2,0.2-0.2s0,0,0-0.1c0,0,0,0-0.1,0.1c0,0-0.1,0-0.1,0.1l-0.8,0.1c0,0-0.1,0-0.2,0.1c-0.1,0-0.2,0.1-0.2,0.1
			c-0.3-0.1-0.5,0-0.6,0l0,0.1c0.1,0,0.1,0,0.1,0c0.2,0,0.4,0.1,0.4,0.1c0.1,0,0.2,0.1,0.2,0.2c0.1,0.1,0.1,0.1,0.2,0.2
			c0.1,0.1,0.2,0.2,0.2,0.2c0,0.1,0,0.2-0.1,0.3c0.1,0.1,0.1,0.1,0.2,0.2c0.1,0.2,0.1,0.3,0.1,0.4c0.1,0.1,0.2,0.2,0.2,0.2l0,0.1
			c0,0.2,0.1,0.3,0.5,0.5c0,0,0.1,0.1,0.2,0.2c0.1,0.1,0.1,0.1,0.1,0.2c-0.1,0-0.3-0.1-0.3-0.1l0,0.1c0,0.1,0,0.1,0,0.1
			c0.1,0.2,0.1,0.3,0.1,0.3l0,0c0,0.1,0,0.1,0,0.1c0.1,0.1,0.2,0.1,0.2,0.2c0.1,0.1,0.1,0.2,0,0.4c0.1,0.1,0.2,0.1,0.2,0.2
			c0,0.1,0.1,0.2,0.1,0.4c0.1,0.2,0,0.3,0.1,0.4c0.1,0,0.2,0,0.2,0c0-0.1,0.1-0.3,0.2-0.5c0-0.1,0.1-0.3,0.1-0.5
			c0-0.2,0.1-0.3,0.2-0.4c0.1-0.5,0.2-0.8,0.3-1.1c0.1-0.3,0.1-0.5,0.2-0.7c0-0.1,0.1-0.2,0.2-0.1c0,0,0,0.1,0,0.2s0,0.1,0,0.1
			c0.1,0.1,0.1,0.2,0.2,0.2c0,0.1,0,0.2,0.1,0.2c0.1,0.1,0.1,0.1,0.2,0.1c0,0.1-0.1,0.1-0.1,0.2c0.1,0.1,0.1,0.1,0.2,0.2
			c0.1,0.1,0.1,0.1,0.1,0.2l0,0.1l0,0.1c0.1,0.1,0.1,0.1,0.2,0.2c0,0.1,0,0.1,0.1,0.2c0.1,0.2,0.1,0.3,0.1,0.4c0,0.1,0,0.1,0,0.1
			c0.1,0.1,0.1,0.1,0.2,0.2l0,0.1l0,0.1l0.1,0c0.1,0,0.2-0.1,0.2-0.3c0-0.1,0.1-0.3,0.1-0.4c0.3-1.3,0.7-2.2,0.8-2.9
			c0-0.1,0-0.1,0-0.2c0,0,0-0.1,0.1-0.3c0-0.2,0.1-0.3,0.2-0.4c0.1-0.3,0.2-0.5,0.2-0.6c0-0.2,0.2-0.4,0.3-0.5c0,0,0.1-0.1,0.2-0.1
			c0.1-0.1,0.2-0.1,0.1-0.2c-0.2,0.1-0.3,0-0.5,0C45.4,118.1,45.3,118.1,45.3,118.1z M84.3,143c-2.5-0.7-4.2-1.6-5.2-2.6l-0.1-1.4
			c0.8-1.1,1.6-1.7,2.4-1.7l0.2,0c0.7,0,1.3,0.3,1.9,1l1.1,2.3l0.2,0c0.5-2.3,0.9-3.7,1.3-3.9l0-0.2l-0.4,0l-1,0.5
			c-0.6-0.2-1.3-0.3-2.3-0.3l-1,0l-2.1,0.3c-2,1.4-3,2.6-3,3.7c0.9,2.1,1.7,3.1,2.4,3.1c2.5,0.6,4.7,1.8,6.3,3.5l0,0.3
			c0,0.9-0.7,1.6-2.1,1.9l-2.2-0.1c-1.2,0.1-2.1-1.1-2.8-3.3c-0.4,0-0.9,1.4-1.7,4l0.4,0.4l1-0.7l4.1,0.6l0.2,0l0.2-0.2l0.6,0.2
			l0.6-0.2c1.8-0.1,3.3-1.3,4-3.6l0-1C87.2,144.6,86.2,143.7,84.3,143z M29.9,83.4c-0.4,0-0.8,0.2-1.2,0.1c-0.1,0-0.2,0-0.4-0.1
			c-0.2,0-0.3-0.1-0.4,0c-0.1,0-0.3,0-0.4,0.1c-0.1,0.1-0.2,0.1-0.3,0s-0.1,0-0.2,0c-0.1,0-0.1,0-0.1,0c-0.5,0-0.8,0.1-1,0.2
			c0.1,0,0.3,0.1,0.6,0.1C26.8,84,26.9,84,27,84c0.3,0.1,0.2,0.3,0.1,0.6c-0.2,0.5-0.2,0.8-0.3,1c-0.1,0.1-0.1,0.2-0.2,0.3
			c0,0.2-0.1,0.4-0.1,0.5c-0.3,0.5-0.5,0.9-0.4,1.3c-0.2,0.3-0.4,0.3-0.4,0.4c-0.1,0.7-0.3,1.2-0.3,1.6c-0.3,0.6-0.5,0.9-0.6,1.2
			c-0.1,0.1-0.2,0.2-0.3,0.1c-0.1,0-0.1-0.1-0.2-0.1c0-0.2,0-0.5-0.2-0.8c-0.1-0.4-0.2-0.7-0.2-0.8c-0.2-0.1-0.3-0.2-0.4-0.3
			c0-0.2,0-0.4-0.2-0.7c-0.2-0.2-0.2-0.5-0.4-0.8c-0.1-0.3-0.2-0.5-0.3-0.8c-0.2-0.2-0.3-0.4-0.5-0.5c0-0.3,0-0.4,0-0.6
			c0-0.1-0.1-0.2-0.2-0.5c-0.1-0.2-0.1-0.3-0.1-0.4c0-0.2,0.1-0.3,0.2-0.4c0.1-0.1,0.3-0.1,0.7-0.3c0.2-0.1,0.3-0.1,0.3-0.2
			c0,0,0-0.1-0.1-0.1c-0.2,0.1-0.5,0.1-0.9,0.1c-0.5,0-0.8,0-0.9-0.1c-0.4,0-0.8,0.2-1.3,0.2c-0.4,0-0.8,0.1-1.1,0
			c0,0-0.1-0.1-0.1-0.2c-0.3,0-0.6,0.1-0.7,0.2c0.1,0.1,0.2,0.1,0.6,0.3c0.4,0.1,0.6,0.2,0.7,0.3c0.5,1.1,0.9,1.9,1.2,2.4
			c0,0.1,0.1,0.2,0,0.3c0,0.2-0.1,0.5-0.3,0.9c-0.2,0.4-0.2,0.7-0.2,0.9c-0.1,0.1-0.1,0.2-0.2,0.3c-0.1,0.6-0.3,1.3-0.6,1.9
			c0,0.1-0.1,0.2-0.3,0.1c-0.4-0.7-0.6-1.2-0.7-1.6c0-0.1-0.2-0.2-0.3-0.5c-0.2-0.2-0.2-0.4-0.2-0.5c-0.1-0.1-0.1-0.1-0.2-0.2
			c-0.1-0.2,0-0.4,0-0.5c-0.6-0.8-0.8-1.4-0.8-1.6c0-0.3-0.1-0.5-0.2-0.7c-0.2-0.3-0.4-0.7-0.4-0.9c0-0.2,0.2-0.4,0.5-0.5
			c0.3-0.1,0.4-0.2,0.5-0.3c0,0,0-0.1-0.1-0.1c0,0-0.1,0-0.2,0.1c-0.1,0.1-0.1,0.1-0.2,0.1l-2,0.1c0,0-0.2,0.1-0.4,0
			c-0.2,0.1-0.4,0-0.5,0c-0.8,0-1.3,0-1.6,0c-0.1,0.1-0.1,0.1-0.1,0.2c0.1,0.1,0.2,0.1,0.2,0.1c0.5,0.1,0.9,0.2,1,0.2
			c0.2,0,0.4,0.2,0.4,0.4c0.1,0.1,0.1,0.3,0.3,0.5c0.2,0.2,0.3,0.5,0.4,0.5c0,0.3,0,0.4,0,0.5c0.2,0.2,0.2,0.3,0.3,0.4
			c0.1,0.3,0.3,0.7,0.4,0.9c0.2,0.2,0.3,0.5,0.4,0.5c0,0.1,0,0.2-0.1,0.3c0,0.4,0.4,0.7,1.3,0.9c0,0.1,0.2,0.2,0.3,0.4
			s0.3,0.2,0.2,0.4c-0.4-0.2-0.7-0.2-0.8-0.3l-0.1,0.2c0.1,0.1,0.1,0.2,0,0.3c0.1,0.3,0.3,0.6,0.5,0.7c0,0,0,0,0,0.1
			c0,0.1,0.1,0.2,0,0.3c0.2,0.1,0.4,0.3,0.5,0.4c0.1,0.2,0.1,0.4,0.1,0.8c0.2,0.1,0.4,0.3,0.4,0.5c0.1,0.1,0.1,0.3,0.3,0.8
			c0,0.3,0.2,0.5,0.3,0.8c0.2,0,0.4,0.1,0.6,0c0.1-0.3,0.3-0.6,0.5-0.9c0-0.2,0.2-0.5,0.3-1c0.2-0.4,0.2-0.6,0.3-0.8
			c0.2-0.9,0.6-1.6,0.9-2.1c0.2-0.6,0.4-1.1,0.4-1.3c0.1-0.2,0.2-0.3,0.5-0.2c0,0.1,0,0.2-0.1,0.3s0,0.2,0.1,0.2
			c0.2,0.2,0.2,0.3,0.4,0.5c0.1,0.2,0,0.4,0,0.4c0.1,0.1,0.3,0.2,0.3,0.4c-0.1,0.1-0.1,0.3-0.2,0.3c0.2,0.1,0.3,0.2,0.4,0.4
			s0.2,0.3,0.2,0.4c0,0.1,0,0.2,0,0.2c0,0.1,0.1,0.1,0.1,0.2c0.2,0.1,0.3,0.2,0.3,0.5c0,0.1,0,0.3,0,0.4c0.2,0.3,0.4,0.7,0.5,0.8
			c0,0.1,0.1,0.2,0,0.3c0.1,0.2,0.2,0.3,0.3,0.4c0,0,0,0.1,0,0.2c0,0.1,0,0.2,0,0.2c0.1,0,0.2,0,0.3,0.1c0.3,0,0.4-0.1,0.6-0.5
			c0.1-0.3,0.2-0.6,0.2-0.8c0.9-2.6,1.7-4.5,2.2-5.7c0-0.1,0.1-0.3,0.1-0.3c0-0.1,0.1-0.3,0.3-0.7c0.2-0.4,0.3-0.6,0.3-0.8
			c0.2-0.6,0.4-1,0.5-1.1c0.2-0.4,0.3-0.8,0.7-0.9C29.2,83.6,29.4,83.5,29.9,83.4C29.8,83.6,29.9,83.5,29.9,83.4z M75.1,26l0.1-0.2
			l0-0.1c0-0.1-0.5-0.2-1.3-0.1l-0.1,0c-0.4-0.8-0.5-1.2-0.6-1.4l-0.2-5.9l0.1,0l0.8,1.2c0.6,0.7,2.6,2.7,6.1,5.7
			c0.4,0.5,1.1,0.9,1.8,1.3c5.4,1.3,6.1,1.2,2-0.4l-2.5-2.6l-0.6-1.1l-0.3-6.7c-0.1-0.8,0.1-1.4,0.4-1.7c0.8-0.3,1.2-0.4,1.2-0.4
			l0-0.1L82,13.4l-3.7,0.2l-0.1,0.2l0,0.1c1.1,0.1,1.8,0.4,1.8,1L80,17l0.1,3.2l0,1.5l-4-4.1C76,17,74.5,15.9,72,14.1
			c-0.8-0.6-1.9-0.9-3.2-0.9l-0.1,0c0,0.3,0.1,0.6,0.4,0.9c0.7,0.1,1.5,0.8,2.4,2.2c0,0.2,0,0.3,0.1,0.3l0,1.3l0.2,5.5l-0.1,1.1
			c-0.2,0.8-1.1,1.2-2.6,1.3l-0.4,0L68.5,26l0,0.3l0.2,0.1L75.1,26z M96.2,105.4c-0.4,0.2-0.9,0.4-1,0.9
			C95.8,106.1,96,105.8,96.2,105.4z M37.8,120.5c-0.9-0.3-1.5-0.6-1.9-0.8l0-0.4c0.3-0.4,0.6-0.5,0.9-0.6l0.1,0
			c0.2-0.1,0.5,0.1,0.7,0.3l0.4,0.8l0.1,0c0.2-0.8,0.4-1.1,0.5-1.2l0-0.1l-0.1,0l-0.3,0.1c-0.2,0-0.5-0.1-0.8,0l-0.4,0l-0.7,0.1
			c-0.8,0.5-1.1,0.8-1.1,1.2c0.3,0.7,0.6,1,0.9,1c1,0.2,1.7,0.6,2.3,1.1l0,0.1c0,0.3-0.3,0.5-0.8,0.6l-0.8,0c-0.5,0-0.8-0.3-1-1.1
			c-0.1,0-0.4,0.4-0.6,1.3l0.2,0.1l0.3-0.2l1.5,0.2l0.1,0l0.1-0.1l0.2,0l0.2-0.1c0.7,0,1.2-0.4,1.4-1.2l0-0.3
			C38.9,121,38.6,120.8,37.8,120.5z M115.6,118c-0.9-0.3-1.5-0.6-1.9-0.8l0-0.4c0.3-0.4,0.6-0.5,0.9-0.6l0.1,0
			c0.2-0.1,0.5,0.1,0.7,0.3l0.4,0.8l0.1,0c0.2-0.8,0.4-1.1,0.5-1.2l0-0.1l-0.1,0l-0.3,0.1c-0.2,0-0.5-0.1-0.8,0l-0.4,0l-0.7,0.1
			c-0.8,0.5-1.1,0.8-1.1,1.2c0.3,0.7,0.6,1,0.9,1c1,0.2,1.7,0.6,2.3,1.1l0,0.1c0,0.3-0.3,0.5-0.8,0.6l-0.8,0c-0.5,0-0.8-0.3-1-1.1
			c-0.1,0-0.4,0.4-0.6,1.3l0.2,0.1l0.3-0.2l1.5,0.2l0.1,0l0.1-0.1l0.2,0l0.2-0.1c0.7,0,1.2-0.4,1.4-1.2l0-0.3
			C116.8,118.5,116.4,118.2,115.6,118z M36.7,53.1L36.7,53.1L36.7,53.1c0-0.2-0.2-0.1-0.6-0.2l0,0c-0.1-0.3-0.2-0.5-0.3-0.7
			l-0.1-2.8l0,0l0.4,0.5c0.2,0.3,1.2,1.2,2.8,2.6c0.3,0.2,0.5,0.4,0.8,0.6c1.1,0.3,1.7,0.4,2,0.4c0,0.1,0.1,0.1,0.1,0.2
			c0.1,0.2,0,0.3,0.1,0.4c0.1,0,0.2,0,0.2,0c0-0.1,0.1-0.3,0.2-0.5c0-0.1,0.1-0.3,0.1-0.5c0-0.2,0.1-0.3,0.2-0.4
			c0.1-0.5,0.2-0.8,0.3-1.1c0.1-0.3,0.1-0.5,0.2-0.7c0-0.1,0.1-0.2,0.2-0.1c0,0,0,0.1,0,0.2c0,0.1,0,0.1,0,0.1
			c0.1,0.1,0.1,0.2,0.2,0.2c0,0.1,0.1,0.2,0.1,0.2c0.1,0.1,0.1,0.1,0.2,0.1c0,0.1-0.1,0.1-0.1,0.2c0.1,0.1,0.1,0.1,0.2,0.2
			c0.1,0.1,0.1,0.1,0.1,0.2l0,0.1l0,0.1c0.1,0,0.1,0.1,0.2,0.2c0,0.1,0,0.1,0.1,0.2c0.1,0.2,0.1,0.3,0.1,0.4c0,0.1,0,0.1,0,0.1
			c0.1,0.1,0.1,0.1,0.2,0.2l0,0.1c0,0.1,0,0.1,0,0.1l0.1,0c0.1,0,0.2-0.1,0.2-0.3c0-0.1,0.1-0.3,0.1-0.4c0.3-1.3,0.7-2.2,0.8-2.9
			c0-0.1,0-0.1,0-0.2c0,0,0-0.1,0.1-0.3c0-0.2,0.1-0.3,0.2-0.4c0.1-0.3,0.2-0.5,0.2-0.6c0-0.2,0.2-0.4,0.3-0.5c0,0,0.1-0.1,0.2-0.1
			c0.1-0.1,0.2-0.1,0.1-0.2c-0.2,0.1-0.3,0-0.5,0c0,0-0.1,0-0.2,0c-0.1,0-0.1,0-0.2,0c-0.1,0-0.1,0-0.2,0.1c-0.1,0-0.1,0-0.1,0.1
			c0,0,0,0-0.1,0l-0.1,0c-0.2,0-0.3,0-0.4,0.1c0,0,0.1,0,0.3,0.1c0.1,0,0.2,0,0.2,0c0.1,0.1,0.1,0.2,0,0.3c0,0.2-0.1,0.4-0.1,0.5
			c0,0.1,0,0.1-0.1,0.1c0,0.1,0,0.2,0,0.2c-0.1,0.2-0.2,0.5-0.1,0.7c-0.1,0.1-0.1,0.2-0.1,0.2c-0.1,0.3-0.1,0.6-0.1,0.8
			c-0.1,0.3-0.2,0.5-0.2,0.6s-0.1,0.1-0.1,0.1s-0.1,0-0.1-0.1s-0.1-0.2,0-0.4c-0.1-0.2,0-0.4-0.1-0.4c-0.1,0-0.1-0.1-0.2-0.1
			c0-0.1-0.1-0.2,0-0.4c-0.1-0.1,0-0.3-0.1-0.4c-0.1-0.2,0-0.3-0.1-0.4c-0.1-0.1-0.2-0.2-0.2-0.2c0-0.1,0-0.2,0-0.3
			c0,0-0.1-0.1-0.1-0.2c-0.1-0.1-0.1-0.2-0.1-0.2c0-0.1,0-0.1,0-0.2c0-0.1,0.1-0.1,0.2-0.2c0.1,0,0.1-0.1,0.1-0.1s0,0,0-0.1
			c-0.1,0.1-0.2,0.1-0.3,0c-0.2,0-0.3-0.1-0.3,0c-0.2,0.1-0.3,0-0.5,0.1c-0.2,0.1-0.3,0-0.4,0c0,0,0,0,0-0.1c-0.1,0.1-0.2,0.1-0.3,0
			c0,0,0.1,0.1,0.2,0.1c0.1,0,0.2,0.1,0.3,0.1c0.2,0.5,0.3,1,0.5,1.2l0,0.1c0,0.1,0,0.2-0.1,0.4c0,0.2-0.1,0.4-0.1,0.5
			s0,0.1-0.1,0.1c-0.1,0.3-0.1,0.7-0.3,1c0,0.1,0,0.1-0.1,0.1c-0.1-0.3-0.3-0.7-0.3-0.9c0,0-0.1-0.1-0.2-0.2c-0.1-0.1-0.1-0.2,0-0.3
			l-0.1-0.1c0-0.1-0.1-0.2-0.1-0.2c-0.2-0.4-0.3-0.7-0.4-0.8c-0.1-0.2,0-0.3,0-0.3c-0.1-0.2-0.1-0.3-0.1-0.4c0-0.1,0-0.2,0.1-0.3
			c0.1-0.1,0.2-0.2,0.2-0.2s0,0,0-0.1c0,0,0,0-0.1,0.1c0,0-0.1,0-0.1,0.1l-0.8,0.1c0,0-0.1,0-0.2,0.1c-0.1,0-0.2,0.1-0.2,0.1
			c-0.3-0.1-0.5,0-0.6,0l0,0.1c0.1,0,0.1,0,0.1,0c0.2,0,0.4,0.1,0.4,0.1c0.1,0,0.2,0.1,0.2,0.2c0.1,0.1,0.1,0.1,0.2,0.2
			c0.1,0.1,0.2,0.2,0.2,0.2c0,0.1,0,0.2-0.1,0.3c0.1,0.1,0.1,0.1,0.2,0.2c0.1,0.2,0.1,0.3,0.1,0.4c0.1,0.1,0.2,0.2,0.2,0.2l0,0.1
			c0,0.2,0.1,0.3,0.5,0.5c0,0,0.1,0.1,0.2,0.2c0.1,0.1,0.1,0.1,0.1,0.2c-0.1,0-0.3-0.1-0.3-0.1l0,0.1c0,0.1,0,0.1,0,0.2
			c0.1,0.1,0.1,0.3,0.1,0.3l0,0c0,0.1,0,0.1,0,0.1c0.1,0.1,0.2,0.1,0.2,0.2c0.1,0.1,0.1,0.2,0,0.4c0.1,0,0.1,0.1,0.2,0.2
			c-0.2-0.1-0.6-0.2-1-0.5l-1.1-1.2l-0.2-0.5L38.9,48c0-0.4,0-0.6,0.1-0.8c0.3-0.1,0.5-0.2,0.5-0.2l0,0l-0.1,0l-1.7,0.1l0,0.1l0,0.1
			c0.5,0,0.8,0.2,0.8,0.4l0,1l0.1,1.4l0,0.7l-1.8-1.8c-0.1-0.2-0.8-0.7-2-1.6c-0.4-0.3-0.8-0.4-1.4-0.4l0,0c0,0.1,0,0.3,0.1,0.3
			c0.3,0.1,0.7,0.3,1,1c0,0.1,0.1,0.1,0.1,0.1l0,0.6l0.1,2.5l-0.1,0.5c-0.1,0.4-0.5,0.5-1.2,0.6l-0.2,0l0.4,0.3l0,0.1l0.1,0.1
			L36.7,53.1z M109.2,46.8L109.2,46.8l0-0.2c0-0.1-0.2-0.1-0.7-0.1l0,0c-0.2-0.3-0.3-0.7-0.3-0.8l-0.1-3.2l0,0l0.4,0.6
			c0.2,0.3,1.4,1.4,3.2,3c0.3,0.2,0.5,0.5,1,0.7c2.2,0.6,2.9,0.6,2,0.2l2.5-0.1l1.9,0l0-0.1l0.1-0.1l0-0.2c-0.4,0-0.8-0.6-1.2-2
			l-0.3,0l-0.1,1.1c0,0.7-0.5,1-1.4,1.1l-0.1,0c-0.6-0.1-0.9-0.3-0.9-0.3l-0.1-2.3l0.2-0.2l0.7,0c0.1,0,0.2,0.1,0.3,0.5
			c0.1,0,0.4-0.3,0.6-1l0-0.1l-1.4,0.3c-0.2,0-0.3-0.1-0.3-0.1l0-1.5c0-0.4,0.2-0.7,0.7-0.7l0.2,0c0.8,0,1.3,0.3,1.3,0.8l-0.1,0.7
			l0.1,0.2l0.1,0L118,43c0.3-1,0.6-1.6,0.9-1.9l0-0.1l-0.1-0.1l-1.9,0.3l-1.1,0l-0.1,0.1l-0.1-0.1l-2.1,0l0,0.2l0.3,0.1
			c0.4,0,0.6,0.4,0.7,1.3l0,0.9l-0.7,0.3l0,0.1l0.1,0.1l0.3,0c0.2,0,0.3,0.1,0.3,0.1l0,0.9l0.2,0.2l-0.3,0.7l0,0.1l0.1,0.5l-0.2,0.3
			c-0.1,0-0.3-0.1-0.4-0.2l-1.3-1.3l-0.3-0.6l-0.2-3.6c0-0.4,0-0.7,0.2-0.9c0.4-0.1,0.6-0.2,0.6-0.2l0,0l-0.1-0.1l-1.9,0.1l-0.1,0.1
			l0,0.1c0.6,0,0.9,0.3,0.9,0.6l0.1,1.1l0,1.6l0.1,0.8l-2.1-2.2c-0.2-0.2-0.9-0.9-2.2-1.8c-0.4-0.4-1-0.5-1.6-0.5l0,0
			c0,0.2,0,0.3,0.2,0.4c0.4,0.1,0.7,0.4,1.2,1.1c0,0.1,0.1,0.2,0.1,0.2l0,0.7l0.1,2.9l-0.1,0.6c-0.1,0.4-0.5,0.6-1.3,0.7l-0.2,0
			l-0.1,0.1l0,0.2l0.1,0.1L109.2,46.8z M121.8,118.2l-0.3,0l-0.1,0.9c0,0.6-0.3,0.9-1.3,0.9l-0.1,0c-0.5-0.1-0.8-0.2-0.8-0.3
			l-0.1-1.9l0.1-0.2l0.6,0c0.1,0,0.2,0.1,0.2,0.4c0.1,0,0.2-0.3,0.5-0.9l0-0.1l-1.2,0.3c-0.2,0-0.3-0.1-0.3-0.1l-0.1-1.3
			c0-0.4,0.2-0.6,0.6-0.6l0.2,0c0.7,0,1.1,0.3,1.1,0.7l-0.1,0.6l0.1,0.2l0.1,0l0.1-0.1c0.2-0.9,0.5-1.4,0.8-1.6l0-0.1l-0.1-0.1
			l-1.7,0.2l-1-0.1l-0.1,0.1l-0.1-0.1l-1.8,0.1l0,0.1l0.3,0.1c0.3,0,0.5,0.4,0.6,1.1l0.1,0.8l-0.5,0.2l0,0.1l0.1,0.1l0.2-0.1
			c0.2,0,0.3,0.1,0.3,0.1l0.1,0.8l0.2,0.2l-0.3,0.6l0,0.1l0.1,0.4l-0.3,0.5l0,0.1l3-0.1l1.7,0l0-0.1l0.1-0.1l0-0.1
			C122.4,120,122.1,119.4,121.8,118.2z M102.4,60.8c0,0.1,0,0.4,0.1,0.3C102.6,61.1,102.4,60.6,102.4,60.8z M88.8,61.8
			c-0.4-0.1-0.5-0.4-1-0.4C87.8,61.9,88.7,62,88.8,61.8z M106.8,61c-0.6-0.2-0.9-1.4-1.5-1.1C105.8,60.1,106.1,61.3,106.8,61z
			 M91.9,63c-0.4,0-0.9-0.8-1.3-0.3C91.1,62.8,91.6,63.4,91.9,63z M140.4,84.4l-0.7,0l-0.2,2.2c0.1,1.3-1.1,2.1-3.3,2.2l-0.2,0
			c-1.4-0.1-2.1-0.5-2-0.7l-0.2-4.6l0.5-0.3l1.5,0c0.2-0.1,0.5,0.3,0.7,1c0.3,0,0.7-0.7,1.3-2.1l0-0.2l-3.1,0.6
			c-0.4,0-0.7-0.1-0.7-0.3l-0.1-3.1c0-0.9,0.5-1.4,1.8-1.4l0.4,0c1.9,0,2.9,0.6,3,1.6l-0.1,1.4l0.2,0.4l0.2,0l0.2-0.2
			c0.6-2,1.4-3.3,2.1-3.8l0-0.2l-0.2-0.1l-4.5,0.6l-2.7-0.1l-0.2,0.2l-0.2-0.1l-4.9,0.2l0,0.3l0.7,0.1c0.8-0.1,1.4,0.8,1.7,2.6
			l0.1,1.8l-1.5,0.6l0,0.2l0.3,0.1l0.6-0.2c0.4,0,0.7,0.1,0.7,0.3l0.1,1.8l0.5,0.5l-0.8,1.4l0,0.2l0.2,1l-0.8,1.1l0,0.2l7.8-0.3
			l4.5,0.1l0-0.2l0.2-0.2l0-0.3C142.1,88.6,141.2,87.3,140.4,84.4z M69.7,49.1c-0.4,0.2-1.2,0.1-1.3,0.6
			C69,49.7,69.6,49.6,69.7,49.1z M122.1,75c-0.1-0.8,0.3,0.2,0.3-0.4C118,60.7,109.7,51.2,98,45.2c-1.6,0-2.9-1-4.4-1.6
			c-3.5-1.3-7.2-1.9-11.5-2.3c0-0.9-0.4-1.4-0.7-1.9c-0.3-0.8-0.1-1.7,0.3-2.1c1.1-1,2.2,0.3,3.3,0.2c0.7-0.1,0.9-0.6,1.4-1.2
			c-0.4-1-0.5-2-1.1-2.8c-1.2-1.7-4.6-2.2-6.7-1.1c-0.2-2.4-1.1-3.9-2.4-5.1l0-0.1l-0.6,0c-1.3,1.4-2.6,2.7-2.8,5
			c-3-1.9-6.8,1.8-6.3,5.4c0.3,0.2,0.5,0.5,0.9,0.7c0.7-0.2,0.9-0.9,1.4-1.2c1.8-0.4,3.4,1.1,3,2.4c-0.1,0.7-0.8,0.7-1,1.2
			c-0.1,0.6,0.3,0.8,0.3,1.4c-1.3,0.2-2.6,0.6-3.6,1.1c-0.9-0.3-1.5,0-2.3,0.3c-0.2,1.7,1.1,2.7,1.1,4.6c-1.4,0.2-2.2,0.9-3.5,1.1
			c-0.3-0.6-0.8-1.3-0.6-2c-0.4-0.6-0.8-1.4-1.1-2c-0.8,0.3-1.8,0.4-1.8,1.4c-0.9-0.1-1.2,0.4-1.3,1c0.8,0,1.2-0.8,1.7-0.7
			c0.3,1.3,1.2,1.8,1.4,3.3c-1.4,0.4-2.1,1.2-3.5,1.5c-0.5-1.4-1.2-2.6-2-3.6c-0.6,0.1-0.8,0.7-1.4,0.8c0.2,1.4-0.6,2-1.8,2.3
			c0.2-0.9,1.2-1.1,1.6-1.8c-0.9,0.5-1.8,0.9-2,2.1c-0.1,0.3,0.6-0.1,0.7,0.2c0.4-0.2,1.3-1.1,1.8-1.6c0.4,1.2,1.6,1.6,1.8,2.9
			c-1.1,0.7-2,1.6-3.2,2.2c-0.2-0.8-0.9-0.9-0.7-1.5c-0.6-0.6-1.2-1.1-1.8-1.8c-0.6,0.2-1,0.7-1.3,1.3c0.6,1.4,1.9,1.9,2.6,3.2
			c-0.7,0.3-1,0.9-1.5,1.4c-0.4-0.1-0.5-0.5-1.2-0.3c0.2,0.4,0.8,1.2-0.2,1.6c-0.9-0.6-0.7-1.6-1.8-1.9c0.8-0.9,2-1.3,2.3-2.7
			c-1,0.2-1.8,1.5-2.6,2.3c-0.3-0.1-0.5-0.3-0.4-0.9c-1.8,1.1-2.7,3.2-3.7,5c-0.2,0.3-0.4-0.1-0.7,0.1c-0.7,2.2-2.5,3.5-3.7,5.4
			c-0.1,0.3,0.3,0,0.3-0.1c0.1,1.4-1.4,2.4-1.3,4.2c-0.4,0-0.5-0.3-0.8-0.3c-0.2,1.7-0.8,3-1.5,4.4c0.5,2.1-0.6,3.6-1.2,5.1
			c-0.2,0.4,0.2,0.3,0.2,0.4c-0.3,1.6-0.4,3.4-0.4,5.2c-1.3,0.5-2.9,0.5-4.3,0.9c-0.5-0.2-0.1,0.4-0.4,0.3l-0.2,0.1l0.1,0.2
			c2.1,0,2.8,0.7,4.7,0.9c0.4,0.6-0.2,0.9-0.4,1.5c-0.1,1.1,0.7,2.5,0.6,3.7c-0.3-0.1-0.3-0.6-0.6-0.8c-0.1,1.3,0.2,2.8,0.8,3.9
			c0.4,0.9,1.4,1.4,1.8,2.1c0.6,1,0.7,2.5,1.1,3.5c0.2,0.5,0.5,1.1,0.7,1.5c1,2.6,2.5,4.3,4,6.4c3.3,4.9,7.1,8.8,11.7,12.3
			c0.4,0,0.8,0.1,1.2,0.3c1.1,0.5,2.2,1.5,3.3,2.1c3.5,2,7.2,3.5,11.2,4.9c0.5,0.2,0.5-0.6,0.8-0.2c3.3,0.3,6.5,1.6,10.2,0.6
			c0.1,0.4,0.4,0.6,0.5,1.1c0.1,0.5,0,1.1,0.2,1.6c0.2,0.7,0.5,1.3,0.8,1.7l0.1,0c0-1.8,0.4-3.3,0.8-4.7c3.2,0,6.2-1,8.9-1.8
			c8.4-2.7,14.9-7.2,20.1-12.7c2.6-2.8,5-6,6.7-9.4c0.6-1.1,1-2.5,1.6-3.8c2.3-5.1,2.8-11,3.4-17.5c1.6-0.3,3.3-0.5,4.8-0.9
			c0-0.2,0.1-0.3,0.1-0.4l0.1,0l0-0.1c-2.4,0-3.5-0.7-5.6-1.1C123.1,79,122.6,77,122.1,75z M121.8,81.4c-1.7-0.3-3.3-0.5-4.7-0.9
			c-0.1-0.4,0.1-0.6,0.1-1c0.2,0.1,1,0.2,1.1,0c0.3,0.1,0,0.4,0,0.5c1-0.3,2.2-0.5,3.3-0.8C121.5,80.1,121.8,80.5,121.8,81.4z
			 M121.2,77.7c-0.3-0.1-0.3-0.5-0.6-0.6c-1.2,0.2-2.2,0.8-3.9,0.8c-0.3-1.2-0.7-2.3-0.8-3.8c1.5-0.1,2.9-0.2,4-1
			C120.7,74.2,121,75.9,121.2,77.7z M118.1,67.3c0.5,1.4,1.1,2.6,1.5,4c-0.4,0.1-0.4-0.2-0.8-0.1c-0.3-0.1-0.2,0.3-0.4,0.3
			c-0.2,0-0.3-0.1-0.5-0.2c-0.5,0.6-1.5,0.8-2.4,1.1c-0.9-0.9-1.3-2.3-1.6-3.7c0.6,0.1,0.8-0.2,1.3-0.3l0,0.4
			c0.1-0.1,0.2-0.2,0.3-0.4C116.8,68.5,117.2,67.7,118.1,67.3C118,67.2,118.1,67.2,118.1,67.3z M100.5,100.2
			c-0.4-0.8-1.4-1.6-1.2-2.5c-1.3-1.3-2.1-3.2-3.5-4.5c-0.1-0.6-0.7-0.8-0.7-1.5c-0.7,0.1-1.3,0.4-1.9,0.6c0.5,1.2,1.5,2,2,3.3
			c0.3,0.5,0.7,0.9,1.1,1.2c0,0.3,0.2,0.3,0,0.6c0.8,0.6,0.8,1.6,1.8,2.1c0.4,1.1,0.7,2.3,1.8,2.7c0.2,1.2,1,2,1.7,2.9
			c-0.3,0.1-0.9-0.6-1-1.1c-0.8-0.2-1.1-0.8-1.8-1c0.2-0.5-0.4-0.8-0.9-0.9c-0.1-0.4-0.3-0.8-0.8-0.7c-0.2-0.7-0.7-1-1.4-1.3
			c0.2-0.5-0.3-0.4-0.5-0.6c-0.3-0.2-0.4-0.7-0.7-0.9c-0.3-0.2-0.7-0.2-0.8-0.4c-1.1-0.8-1.8-2.3-3.2-2.9c-0.1-1.2-1.7-1-1.6-2.4
			c3.7-1.1,8.1-1.8,12.2-2.6c0.4-0.2,0.1,0.4,0.3,0.4c1.5-0.4,1.8-1.7,3.7-1.9c-0.5,4-1.7,7.2-3.2,10.2c0.9-0.7,1.4-2.1,2-3.4
			c0.5-1.3,1.3-2.6,1.9-3.7c-0.1,0.1-0.2,0.2-0.2,0.3c-0.1-1.1,0.7-2.4,0.8-3.7c3.1-0.9,6.4-1.7,9.7-2.5c0,5.2-1.3,9.3-2.4,13.4
			l-0.5,0c-0.4,1.9-1.1,3.4-1.7,4.9c-1,0.1-1.4,1-1.3,2.1c-0.6,0.7-1.3,1.5-1.6,2.4c-0.9-0.3-1.2,0.6-1.6,1
			c-1.8-2.9-4.2-6.1-6.1-9.3c0.2-0.8,0.9-1.1,1-1.9C101.3,98.7,100.6,99.5,100.5,100.2z M95.5,101.3c0.2,0,0.2-0.1,0.2-0.3
			c1.2,1.6,3.1,2.8,4.5,4.1c-1.2,0-2.2-1.5-3.7-1.7c-1.1-1.4-3.6-1.4-4.7-2.9c-0.6-0.1-1.1-0.4-1.4-0.8c-0.2,0-0.3,0-0.3,0.1
			c-0.4-0.6-1.3-0.7-1.9-1.1c0-1.3,0.4-2.4,0.4-3.7c1.9,1.4,3.4,3.3,5.5,4.5c-0.1,0.4,0.4,0.5,0.2,0.7
			C94.9,100.5,95.2,100.7,95.5,101.3z M111.2,85.6c-2.7-0.1-4.1,1.8-6.6,1.6c-0.4,0.3-1.2,0.4-1.8,0.6c-0.3-0.1-0.4,0.2-0.4,0.5
			c-0.3-0.1-0.7-0.2-0.9-0.1c-3.8,1.5-8.4,2.2-12.2,3.8c-0.4,0.1-0.4-0.3-0.8-0.2c-0.4,0-0.4,0.4-0.7,0.5c-1.1-0.6-2.1-1.5-2.7-2.6
			c-1-0.4-1.3-1.2-2.1-1.7c-0.2-0.2-0.2-0.4-0.4-0.7c-0.9-0.3-1.6-1-2-1.8c0.5-0.5,1,0.2,1.4,0.2c2.3,0.1,5.6-1,7.3-0.3
			c1.1-0.6,2.4-0.3,3.7-0.3c0.5,0,0.9-0.3,1.1-0.3c1.7-0.2,3.4,0.1,5,0.2c0.4,0.1,0.3-0.5,0.7-0.4c1.7,0.7,4.1-0.6,5.7-0.3
			c0.2,0,0.7,0,0.7,0.4c0.3-0.6,1.7,0,2.1-0.4c0-0.1-0.1-0.2-0.2-0.2c1.8,0.4,4.9-0.4,7.6-0.3C114.9,85,112.3,84.7,111.2,85.6z
			 M79.4,80.6c-0.2-0.3,0.3-0.5,0.3-0.8c0-0.2-0.2-0.4-0.3-0.8c0.1-0.3,0.2-0.6,0.2-0.8c-0.1-0.8-0.4-1.7-0.5-2.6
			c0-0.4,0.2-0.9,0.2-1.4c0-1.4-0.4-2.7-0.4-4.1c0-0.5,0.2-1,0.2-1.5c0-0.8-0.2-1.7-0.3-2.6c0-1.6,0.4-3.3-0.3-4.3
			c0.7-1.8-0.3-3.6-0.3-5.3c0-0.9,0.4-1.8,0.3-3c0-0.3-0.2-0.5-0.3-0.9c-0.3-1.5,0-3.1-0.3-4.8l0.4,0c0.1,0.7,0.7,1.4,0.8,2.2
			c0.1,0.4,0,0.8,0.1,1.2c0.2,0.7,0.6,1.7,0.9,2.7c0.3,1.6,0.4,2.9,1.3,3.9c1.1,5,2.7,9.3,3.9,14.1c-0.1,0.5,0.3,0.4,0.5,0.6
			c-0.3,1.2,0.4,2.3,0.9,3.1c-0.1,0.6-0.7,0.7-0.7,1.5c-0.5-0.1-0.6,0.5-0.8,0.8c-0.5,0.5-0.9,1-1.4,1.6c-0.5,0.6-1.3,1-1.6,2.1
			c-1.1,0.5-1.8,1.5-2.4,2.5C79.4,82.9,79.9,81.6,79.4,80.6z M105.3,75.1c-0.1-0.3-0.4-0.8-0.5-1.1c-0.3-0.5-0.8-0.6-1.1-1.1
			c-0.4-0.5-0.6-1.3-0.9-1.8c-0.2-0.3-0.5-0.5-0.8-0.8s-0.3-0.8-0.5-1.1c-0.7-1-1.8-1.6-2.3-2.6c0-0.7,0.7-0.7,0.5-1.6
			c1.6-2.5,2.9-4.7,4.5-6.9c5.6,5.5,10.2,12,11.4,22.1c-2.4-0.3-4.4-1-6.6-1.4c-0.2-0.2-0.4-0.6-0.7-0.7c-0.9,0.1-1.5-0.1-2.3,0
			c-0.1-0.8-0.4-1.4-0.7-1.9c0-0.3,0.3,0.1,0.3,0.2C105.8,76.2,105.4,75.5,105.3,75.1z M94.3,74.7c0.1-0.1,0.2-0.2,0.3-0.4
			c0.9,0.5,0.4-0.8,0.6-1.5s0.6-1,0.6-1.4c0.4,0.1-0.1,0.3,0,0.5c0.8-1.4,2-2.4,2.5-4c2.6,2.4,4.4,5.8,5.7,9.7c-1.5-0.6-3.4,0-4.5-1
			c-1.1,0.3-2.2-0.3-3.3-0.3c-0.1-0.2-0.4-0.1-0.1-0.3C95,76.1,94.7,75.4,94.3,74.7z M84.3,61.6c-0.1-0.7-0.3-1.3-1-1.5
			c3.7-0.1,6.6,1.6,9.2,3c0,0.5-0.9,0.1-1.1,0.4c-2,1.5-3.8,3.2-6.1,4.4c-0.7-1.6-0.8-4.1-1.3-6C83.9,61.5,84.4,62.2,84.3,61.6z
			 M87.5,70c0.2-0.1,0.2-0.3,0.2-0.5c1.6-0.6,2.9-1.8,4.3-2.7c1.4-1,2.7-2.1,4.3-2.7c0.4-0.6,1.5-0.9,2.1-1.5
			c0.1,0.7-1.2,0.5-1.2,1.6c-0.2,0-0.2,0.2-0.5,0.1c-1.5,1.9-3.3,3.2-4.4,5.2c-1,0.5-1.4,1.7-2.5,2.2c-0.6,1-1.3,1.9-2.3,2.4
			c-1.1-0.6-0.9-1.8-1.4-3.4C86.8,70.9,86.7,70,87.5,70z M91.4,72.1c0.1-0.2,0.1-0.5,0.1-0.7c1.6-0.5,2-2.2,3.1-3.3
			c0.2-0.2,0.4-0.2,0.7-0.4c1.6-1.9,3.2-3.7,4.8-5.6c-1.4,2.6-3.5,5.6-4.8,8.6c-0.8,1.4-1.6,2.8-2.3,4.3c-1.3-0.2-2.6-0.3-3.9-0.6
			C89.9,73.6,90.5,72.6,91.4,72.1z M96.3,70.8C96,70.4,96.6,70,96.3,70.8L96.3,70.8z M101.5,57.2c-2.2,1.8-5.2,3.6-7.7,5.3
			c-3.1-2-6.6-3.1-10.9-4c-0.3-0.9-0.8-1.5-0.2-2.2c-0.6-1.4-0.8-3.4-1.4-4.7C81.2,51.4,81,51,80.7,51l-0.1-0.8
			c-0.3-0.6-0.9-1-0.9-1.8c0-0.1,0-0.1,0.1-0.1c1.8,0,4.1,0.2,5.9,0.5c1.7,0.3,3.5,0.6,5,1.3c0.4,0.2,0.7,0.6,1.2,0.8
			c1,0.5,2,0.6,3,1.1c2.7,1.4,5.5,2.7,7.5,4.7C102,56.5,101.8,56.9,101.5,57.2z M82.7,58.2c-0.2,0.4-0.4-0.3-0.4-0.5
			C82.6,57.8,82.5,58.2,82.7,58.2z M81.9,56.8c0.3-0.5,0.3,0.5,0.5,0.5C82.1,57.6,82.1,56.8,81.9,56.8z M115.4,82.7
			c-0.2,0.7-1.9,0.1-2.5,0.7c-0.3-0.1-0.2-0.3-0.5-0.5c-0.4,0-0.8,0.4-1.1,0.4c-0.7,0.1-1.5-0.2-2.2-0.2c-0.5,0-0.9,0.3-1.4,0.3
			c-0.8,0.1-1.8-0.3-2.6-0.2c-0.2,0.1-0.4,0.2-0.8,0.3c-1.4,0.3-3.1-0.1-4.6,0c-0.3,0-0.7,0.3-1,0.2c-0.3,0-0.6-0.2-0.9-0.3
			c-1.4-0.1-3.5-0.1-5,0.1c-0.3,0-0.5,0.1-0.9,0.3c-3.7-0.4-7.7,0.7-11.7,0.3c0.4-1.1,1.4-1.8,2-2.8c0.8-0.6,1.7-1.1,2.4-1.8
			c0.5-0.5,0.7-1.2,1.4-1.6c0-0.3,0.2-0.4,0.1-0.7c0.5,0.7,0.7-0.5,1.2-0.5c0.6,0,1,0.3,1.4,0.5c0.7-0.1,0.7-0.1,1.1,0.2
			c1.4-0.3,2.1,0.1,3.1,0.5c0.2,0,0.4-0.1,0.2-0.2c0.1-0.3,0.4,0,0.3,0.2c1.3,0.2,2.9,0.2,3.8,0.8c1,0,2.1-0.3,2.3,0.5
			c1.9-0.5,3,0.9,5.2,0.6c0.1,0.2,0.6,0,0.4,0.5c1.8-0.2,2.1,0.7,3.6,0.3c1.3,0.9,3.6,0.7,5,1.6c0.7,0.1,1.6-0.1,1.7,0.7
			C115.5,83,115.3,83,115.4,82.7z M114.7,62l0.4,0c0.6,1.3,1.7,2.2,2.1,3.7c-0.9-0.1-0.9-1-1.3-1.5c-0.4-0.7-0.8-1.2-1.1-1.7
			L114.7,62z M114,62.4c0.9,0,1.9,2.8,2.4,3.3c-1.2,0.3-1.7,1.3-3.2,1.5c-0.5-1.2-1-2.2-1.8-3.1c0.1-0.5,0.8-0.4,0.9-0.8
			c0.2,0,0,0.4,0.2,0.3c0.1-0.1,0.2-0.4,0-0.4c0.1-0.1,0.6,0,1-0.2C113.7,62.9,113.9,62.4,114,62.4z M113.6,60.4
			c-0.9-0.3-1-1.6-1.7-2.1C112.5,58.4,113.4,59.4,113.6,60.4z M111.3,57.2c-0.1,0-0.1,0.1-0.1,0.1c-0.1,0-0.1-0.2-0.1-0.3
			C111.2,57,111.3,57.1,111.3,57.2z M110.3,57.6c1.2,0.8,2,1.9,2.6,3.4c-0.1,0.1-0.3-0.1-0.4,0c-0.7,0.6-1.2,1.2-2,1.7
			c-0.8-1.1-1.8-1.9-2.5-3.3c0.5,0,0.7-0.8,1.2-0.4c0-0.1-0.1-0.2-0.2-0.2C109.8,58.6,110.1,58.1,110.3,57.6z M106.7,52.9
			c0.1-0.2,0.3-0.1,0.5,0c0.7,1,2,1.6,2.6,2.8c-1.2-0.5-1.8-1.7-2.9-2.4C106.5,53.2,106.6,53,106.7,52.9z M107.3,53.8
			c-0.1,0.3-0.4-0.5-0.7-0.4C106.4,53,107.1,53.8,107.3,53.8z M109,56.2c-0.6,0-0.6,0.7-1,1c-0.4,0.4-0.9,0.7-1.5,0.9
			c-0.6-0.7-1-1.6-1.9-2c0.6-1,0.8-1.7,1.4-2.6C107.3,54.2,108.3,55.1,109,56.2z M101.6,49.3c1.2,0.6,2.4,1.3,3.4,2.2
			c-0.5,0.1-0.8-0.5-1.3-0.8c-0.5-0.3-1.1-0.5-1.5-0.8c0.5,1,1.8,1.1,2.4,2c0,0.3-0.6-0.1-0.4,0.3c-0.7-0.2-1.1-0.7-1.6-1.1
			c-0.4,1,1.2,0.9,1.3,1.6c-0.4,0.4-0.6,1-1.1,1.4c-0.4-0.2-0.8-0.2-1-0.6c-0.1-0.1,0.1-0.3,0-0.4c-0.5-0.5-1.2-0.9-2-1.3
			c0.1-0.2,0.1-0.5,0.1-0.7C100.9,51.3,101.3,50.1,101.6,49.3z M96.2,46.5c1.3,0.4,2.6,1,3.6,1.8c-0.1,0.2-0.2,0.5-0.6,0.4
			c0.1,1.2-0.6,1.7-1.1,2.3c-1.5-0.2-2.4-0.8-3.4-1.5C94.9,48.2,96.1,47.9,96.2,46.5z M90.5,44c1.3,0.4,2.8,0.8,3.8,1.7
			c0,0.4-0.4,0.3-0.5,0.6c0.1,1.1-0.5,1.6-0.7,2.5c-1.5-0.2-2.5-0.7-3.8-1.1C89.6,46.4,90.6,45.7,90.5,44z M84.6,42.9
			c1.3,0.2,2.9,0.1,4,0.6c-0.3,1.2-0.5,2.7-0.8,3.7c-1.1-0.4-2.8-0.3-3.8-0.8C84,45.3,84.8,44.5,84.6,42.9z M82.6,42.8
			c-0.4,0.8-0.1,2.3-0.3,3.6c-1.1,0.1-1.8-0.1-2.8-0.2c-0.3-1.1-0.8-2-0.6-3.1c0.1,0.1,0.2,0.2,0.2,0.3c0.2,0,0.1-0.3,0-0.2
			C79.8,42.5,81.6,42.7,82.6,42.8z M80.4,33.7c2.5-0.8,4,0.3,4.7,2c-0.2,0.5-1-0.6-1.4-0.8c-3-0.6-4.3,1.3-4.3,3.8
			C78.7,36.8,79.4,34.6,80.4,33.7z M74.2,33.7c0.1-0.4,0.3-0.7,0.5-1.1c0.4-1.6-0.2-3.2,0.8-4c0.1,0,0.2,0,0.3,0.1
			c1.1,0.4,1.6,2.1,1.6,3.6c0.1,2.2-0.4,4.5-0.6,5.8c-0.4,0.2-1.7,0.2-2,0.1C74.5,36.8,74,35.3,74.2,33.7z M78.1,40.5
			c0.8,0,1.9-0.2,2,0.6c-0.4,0.5-1.4,0.5-2.2,0.5c-1.5,0.1-3.4,0-4.9,0.2C73.6,40.9,76,40.5,78.1,40.5z M77.8,63
			c0,0.3-0.2,0.6-0.2,0.9c-0.1,0.9,0.3,2.2,0.3,3.3c0,0.5-0.2,1.1-0.2,1.5c0,0.3,0.3,0.6,0.3,0.9c0,0.5-0.2,1-0.2,1.5
			c0,1.3,0.5,2.6,0.5,4c0.1,2.9-0.3,5.8,0.2,8.9c-1.9-1.3-2.8-3.6-5-4.6c0-0.2,0.1,0,0.2-0.1c0.1-0.3-0.5-0.1-0.4-0.5
			c-0.5-0.4-0.8-1.1-1.4-1.3c-0.2,0.1,0,0.2,0.2,0.2c-0.4,0.2-0.2-0.7-0.6-0.6c-0.1-2.8,1.3-5.4,1-7.2c0.2-0.2,0.3-0.6,0.4-0.7
			c-0.2-0.7,0.2-0.9,0-1.6c0.4-0.5,0.3-1.6,0.8-2.1c0.1-0.3,0-0.6-0.2-0.7c0-0.4,0.4-0.3,0.3-0.7c-0.3-0.8,0.3-1.5,0.4-2
			c0.4-1.4,0.5-3.6,0.8-5.2c0.1-0.8,0.4-1.7,0.5-2.4c0.2-1.3,0.2-2.6,0.9-3.4c-0.2-1.3,0.5-1.9,0.5-3.1c0.3,0.6,0.1,0.9,0.1,1.4
			c-0.2,0.4,0.3,0.8,0.2,1c0,0.3-0.3,0.4-0.2,0.7c0,0.2,0.2,0.3,0.3,0.7c0.2,1.7-0.6,4.6,0.3,5.6c-0.3,0.9,0.2,1.8,0.2,2.5
			c0,0.4-0.1,0.8-0.2,1.3C77.5,61.7,77.8,62.3,77.8,63z M74.9,110.6c-2.7-0.6-5.2-1.3-6.9-2.6c0-0.5,0.7,0.2,1,0.2
			c-0.1-0.6-1.7-0.9-2.3-1.4c0.1,0.4,0.7,0.5,1,0.8c-0.5,0-2.1-1.2-3.1-1.6c1.3-0.9,2.5-1.8,3.7-2.6c1.3-0.9,2.4-1.8,3.9-2.5
			c0.7,2.4,0.8,4.3,1.3,6.7c-0.1-0.1-0.2-0.1-0.2,0.1C73.2,109.3,74.8,109.2,74.9,110.6z M68.3,108.4c-1.3-0.2-2.7-1.3-3.9-2.1
			C65.4,106.9,67.4,107.7,68.3,108.4z M69.8,99.9c-0.2,0.7-1.1,0.6-1.3,1.3c-1.2,0.1-1.7,0.9-2.3,1.5c-0.3-0.2-0.6,0-1,0.2
			c-0.6,0.5-1.5,1.2-2.4,1.7c-1.1,0.6-1.7,0.6-2.3,1.5c-0.3,0-0.3-0.1-0.5,0c-0.9,0.7-1.9,1.3-2.8,2.1c-0.2-0.5,1.1-0.8,1.1-1.5
			c0.1-0.2,0.4-0.1,0.7-0.3c0.4-1.1,2-1.8,2.3-2.7c0.2-0.2,0.5-0.3,0.7-0.4c1.1-1.8,2.8-3.2,4.4-4.5c0.1-0.4,0.3-0.6,0.4-1
			c1.2-0.5,1.6-1.8,2.7-2.4c0.3-0.5,0.4-1.1,1.2-1.3c0,0.1,0.2,0.1,0.4,0.1c0.3,1.5,0.8,2.6,0.9,4.1C71.1,98.9,70.9,99.8,69.8,99.9z
			 M63.3,93.6c-0.2,0.5-0.5,1-1,0.9c-0.3,0.8-0.5,1-0.3,2.1c-1,1.3-1.6,3.1-2.5,4.5c-0.4-0.2-0.4-0.6-0.8-0.7
			c0.1,0.4,0.8,0.7,0.5,1.1c-2.1-2.6-3.8-5.6-4.8-9.4c0.3,0.2,0.7,0,1.3,0.2l0.2,0.2c0.3,0.1,0.6-0.2,0.8-0.2c0.6,0,1,0.5,1.6,0.6
			c1.3,0.2,2.7-0.2,3.6,0.7L63.3,93.6z M62.4,92.1C62.2,92.5,61.6,92,62.4,92.1L62.4,92.1z M59.7,103.5l-0.1-0.7
			c1.3-1.1,1.6-3,2.4-4.5c0.2-0.1,0.2-0.4,0.7-0.3c0.6-1.6,1.4-3,2.3-4.4c1.4,0.2,2.8,0.4,3.9,0.7c0.1,0.7-0.5,0.7-0.8,1
			c-0.2,0.5-0.5,0.7-0.7,1.1c-0.2,0.1-0.2,0.3-0.7,0.3c-0.2,0.6-0.6,0.8-0.8,1.4c-2.2,1.7-3.5,4-5.6,5.7c-0.1,0.3-0.2,0.6-0.3,0.9
			c-0.4,0.3-1.1,0.4-1.1,1.1c-0.8,0.1-1.1,1.1-1.6,1C58.2,106.2,58.6,104.5,59.7,103.5z M63.5,92.6c0-0.3,0.4,0,0.6-0.1
			C64.1,92.7,63.7,92.5,63.5,92.6z M66.5,93c0.1-0.5,0.5-0.2,0.7-0.1C67.2,93.4,66.9,92.9,66.5,93z M70.3,93.5c0,0.3-0.9-0.1-0.6,0
			C69.1,93.4,69.8,93.4,70.3,93.5z M71.5,92c-0.8,0-0.7,0.7-1.4,0.8c-0.6-0.1-0.9-0.5-1.4-0.6c-0.3-0.1-0.4,0-0.3,0.2
			c-0.4,0-0.5-0.3-0.6-0.5c-1.1,0.4-2.3-0.1-3.1-0.5c-0.2,0-0.3,0.1-0.3,0.2c-0.2,0-0.1-0.4-0.3-0.4c-1,0-2.1-0.2-3.1-0.3
			c-0.2,0-0.4-0.2-0.5-0.2c-0.8-0.1-1.9,0.4-2.3-0.5c-0.6,0.4-1.2-0.2-2,0c-0.7-0.6-2.1-0.6-3.4-0.6c-1-0.4-2.1-0.8-3.2-0.9
			c-0.3-0.1-0.6,0.1-0.8,0.1c-1.2-0.3-2.3-0.9-3.4-1.1c-0.1,0.1-0.3,0-0.3,0.2c-0.4-0.3-0.9-0.3-1-0.7c-0.7,0.3-1.3-0.1-2.1-0.3
			c-0.2,0-0.4,0-0.6,0c0.2-0.1,0.4,0,0.6,0c2,0,4.6-0.4,7.2-0.4c0.5,0,1,0.2,1.5,0.2c1,0,2.3,0,3.8-0.2c-0.1-0.2,0.1-0.2,0.1-0.4
			c0.1,0,0.1,0.1,0,0.1c0.6,0.8,2.6-0.4,3.3,0.5c0.3,0,0.4-0.3,0.7-0.4c0.4,0.9,1.4-0.4,2.2-0.2c0.4-0.1,0.2,0.4,0.7,0.3
			c0.5,0,0.8-0.1,0.6-0.5c0.2,0,0.3,0.1,0.2,0.3c1.9-0.5,3.7,0,5.2-0.5c0.4,0.1,0.7,0.2,0.9,0.3c0.8-0.5,1.9-0.3,2.6-0.3
			c1,0.2,1.8-0.3,2.7-0.4c0.3,0,0.2,0.2,0.4,0.3c1.2,0.2,2.5-0.4,3.6-0.3c0.2,0.7-0.8,1.4-1.4,1.8c-0.1,0.3-0.4,0.5-0.6,0.9
			C73.8,89.2,72.4,90.3,71.5,92z M74.5,84.3c-0.5,0.1-0.5,0.1-1.2,0.1c-1.5-0.2-3.6,0-4.9,0.2c-0.3,0-0.7,0.3-1,0.2
			c-0.3,0-0.7-0.2-1-0.2c-0.6,0-1.3,0.3-1.9,0.3c-1.4,0.2-2.9,0-4.4,0.2c-0.3,0-0.6,0.1-0.6,0.4c-1.3-0.2-2.9-0.2-4.3-0.1
			c-0.4,0-0.8,0.3-1.1,0.3c-0.3,0-0.7-0.2-1-0.2c-1.3,0-2.7,0.4-4,0.4c-0.3-0.1-0.6-0.2-0.9-0.3c-2-0.2-4.1,0.2-5.8,0.6
			c-0.2-0.3-1.2,0-1.4-0.5c0-0.4,1,0.1,1.1-0.5c1.4-0.2,2.6-0.7,4-0.9c0.4,0.1,0.2-0.4,0.5-0.4c2.8,0.1,4.5-2.2,7-1.6
			c0.6-0.6,1.7-0.4,2.1-1c0.9,0.3,1.5-0.6,2.3-0.8c0.8-0.3,1.7-0.2,2.4-0.5c0.7-0.2,1.4-0.5,2.2-0.7c2.1-0.6,4.2-1.1,6.1-1.8
			c0.4-0.1,0.8,0.2,1.1,0c0.1-0.1,0.2-0.2,0.2-0.3c0.1,0,0.1,0,0.1,0.1c0.9,0.6,1.9,1.1,2.4,2.2c0.6,0.5,1.5,0.9,2.2,1.5
			c0.3,0.2,0.4,0.7,0.7,0.9c0.8,0.8,2.2,1.3,2.3,2.4C76.6,84.6,75.7,84.1,74.5,84.3z M68.7,62.5c0-0.1-0.2-0.1-0.3-0.1
			c0.8,0,0.9-1.1,2.5-0.8c-0.1,1.2-0.5,2.3-0.6,4c0,0.7-0.1,1.6-0.6,2.1l0.1,1.4c-0.4,0-0.5-0.3-0.8-0.3c0-0.2,0.3-0.1,0.1-0.4
			c-1.1-0.5-2.7-0.1-3.4-1.4c-1.3,0.1-1.7-1-2.7-1.3c1.5-1.5,3.5-2.5,5.3-3.6c0,0.4-0.5,0.2-0.6,0.6C68.1,62.8,68.3,62.6,68.7,62.5z
			 M65.2,68c0,0.3,0.5,0.3,0.4,0.7c0.8,0,1.3,0.7,1.9,0.6c0.4,0.8,1.6,0.6,2.1,1.2c-0.2,1.6-0.4,3.1-0.7,4.6
			c-0.5-0.5-0.9-1.2-1.8-1.3c-0.4-1.2-1.9-1.3-2.3-2.5c-0.3-0.1-0.6-0.2-0.9-0.3c-0.6-1.2-1.8-1.7-2.8-2.6c-0.6-0.6-1.2-1.5-1.8-2.1
			c-0.7-0.6-1.4-1.2-2.3-1.5c-0.1-0.9-1.1-1-1.4-1.8C58.9,64.6,61.7,66.7,65.2,68z M56.7,65c0.1,0.1,0.3,0.1,0.4,0.1
			c0.1,0.1-0.1,0.3,0,0.4c0.3,0.2,0.8,0.3,1.1,0.7c0.3,0.4,0.7,0.8,1,1.2c0.8,0.6,1.3,1,2,1.9c0.2,0.2,0.4,0.3,0.6,0.5
			c0.2,0.2,0.2,0.5,0.4,0.7c0.9,1,2.1,1.6,2.9,2.4c0.2,0.1,0.1,0.4,0.3,0.7c0.5,0.1,0.6,0.5,0.9,0.9c0.4,0.2,0.8,0.2,1,0.5
			c0.1,1,1.3,0.9,1.5,1.8c-1.5,0.5-4.1,1.5-5.1,0c-0.7-1.6-1.6-3.2-2.9-4.4c-0.2-1-1-2.2-1.9-2.9c-0.2-1.3-0.9-2-1.6-2.6
			c-0.1-1-0.8-1.5-1.2-2.1C56.7,64.5,56.7,65,56.7,65z M58.4,71.5c1.2,1.6,2,3.6,3.5,5c0.1,0.6,0.3,1.1,0.8,1.4
			c-1.3,1.2-4.3,0.8-6.1,1.5c-0.5,0-0.1-0.1-0.1-0.3c-0.8,0-1.2,0.3-1.4,0.8C55.3,76.6,57.2,74.1,58.4,71.5z M55.6,76.5
			c-0.1,0.4-0.2,0.9-0.3,1.4c-0.2,0.9-0.3,2.1-1,2.4c0.2-0.4,0.2-0.8,0.2-1.4c0.1,0,0.1,0.1,0.3,0.1c0.3-1.4,0.7-2.5,0.9-3.6
			C56.1,75.7,55.7,76.2,55.6,76.5z M73.4,43.4l1,0c-0.3,0.9-0.3,2.6-0.7,3c-0.4,0,0.1-1.1-0.3-1.5c0.2-0.2,0.2-0.5,0.3-0.7
			C73.6,43.9,73.4,43.8,73.4,43.4z M67.8,36.7c0.3-1.8,1.4-3.7,4.1-3.8c0.2,0.3,0.3,0.8,0.9,0.7c-0.1,0.8-0.3,1.5-0.4,2.3
			C71,34.9,68.6,35.6,67.8,36.7z M71.4,43.3c-0.5,0.9,0.7,2.5,0.4,3.7c-1.5-0.1-2.7,1-3.9,0.4c0-1.7,0-2.2-0.6-3.6
			C68.7,43.8,69.9,43,71.4,43.3z M73.4,48.2c0,0.2-0.3,0.1-0.5,0.1c0.1,0.2,0.3,0.2,0.5,0.2c-0.8,2.1-0.4,5.2-1.8,6.6
			c0.1,1.7-0.2,3.1-0.5,4.5c-3.6,1.3-6.6,3.1-9.1,5.4c-0.6-0.1-0.8-0.7-1.3-0.9c-2.7-1.1-4.7-2.9-6.8-4.5c-0.8,0.2-1.1-0.4-1.7-0.7
			C57.3,53.8,63.9,49.1,73.4,48.2z M50.9,60c2,2.2,3.4,4.8,5.1,7.4c-0.7,0-0.1,0.9,0.5,1c0.3,0.5,0.6,1.1,1,1.6
			c-2,3.2-3.8,6.6-4.5,10.9c-0.9-0.3-1.3,0.5-1.9,0.7c-0.5,0.2-1.3,0.2-2.1,0.4c-0.7,0.2-1.5,0.7-2.2,0.8c-0.5,0.1-1.1-0.1-1.6,0
			c-0.4,0.1-0.9,0.6-1.3,0.7c-1,0.3-2,0.3-2.9,0.5c0.1-2.6,0.4-5.2,0.8-7.7c0.1-0.4,0.4-0.5,0.6-0.9c0.3-2.7,1.4-4.6,2.3-6.6
			c0.3-0.2,0.6-0.3,0.8-0.8c0.3-0.7,0.2-1.3,0.8-1.6c0.2-0.3-0.2-0.4,0.1-0.7C47.9,63.6,49.4,61.9,50.9,60z M45.1,58.2
			c0.2-0.2,0.4,0.4,0.5,0c0.2,0.1,0.3,0.2,0.3,0.7c1,0.2,1.3,1,2.2,1.4c-0.5,1.2-1.7,1.9-2.3,3.2c-1.1-0.4-1.3-1.5-2.4-1.7
			C43.8,60.4,44.7,59.4,45.1,58.2z M42.3,63.5c1.1,0.2,1.6,0.9,2.5,1.1c-0.4,1.5-1.5,2.2-1.7,3.7c-0.6-0.3-1.1-0.5-1.4-1.1
			c-0.4,0-0.5-0.3-1-0.2C41,65.7,41.6,64.7,42.3,63.5z M39.6,69c1.1,0,1.8,0.4,2.5,0.7c-0.2,1.4-1.1,2.1-1.1,3.8c-1-0.1-1.2-1-2.4-1
			C38.7,71.2,39.4,70.3,39.6,69z M41.3,94c0.3,0.1,0.3,0.7,0.4,1C41.2,95.1,41.3,94.4,41.3,94z M38,74.8c0.9-0.5,1.7,0.3,2.5,0.4
			c-0.2,1.3-0.8,2.4-0.9,3.7c-1,0-1.3-0.6-2.2-0.7C37.5,77.1,37.6,75.8,38,74.8z M37,80.6c1-0.1,1.5,0.3,2.5,0.1
			c-0.3,1.1-0.1,2.6-0.5,3.6c-1.1,0.2-1.2-0.1-2.2-0.1C36.9,83.1,36.9,81.8,37,80.6z M36.9,88.1c0.8,0.1,1.5,0.4,2.3,0.4
			c0,0.6,0,1.3,0.2,1.8c-0.8,0.5-1.3-0.4-2.1-0.1C37.1,89.5,36.9,88.9,36.9,88.1z M38.2,96c-0.2-1.3-0.5-2.5-0.8-3.7
			c0.7-0.2,1.5-0.3,2.2-0.4c0.2,1.3,0.6,2.5,0.8,3.9C39.4,96.2,39.4,95.7,38.2,96z M40.4,101.7c-0.8-0.7-0.9-2.3-1.4-3.4
			c0.3-0.7,1.5-0.6,2.1-1c0.4,1.3,1,2.3,1.3,3.8C41.7,101.6,40.7,101,40.4,101.7z M41.2,103.9c0.2-0.8,1.2-0.8,1.7-1.1
			c0.1,0,0.2,0,0.3,0.1c0.5,1.2,1.3,2.1,1.8,3.3c-0.4-0.1-0.4,0.3-0.8,0.3c0-0.1,0.1-0.2,0.1-0.4c-0.5,0.2-0.9,0.7-1.5,0.9
			C42.3,106,41.7,105.1,41.2,103.9z M42.3,97.3c0.6,0.6,0.8,1.8,1.1,2.6C42.8,99.4,42.6,98.2,42.3,97.3z M46.5,112
			c-0.8,0-1.6-2.4-2.4-2.7c0.2-0.9,1-1,1.6-1.6c1.1,0.9,2,1.9,2.6,3.2c-0.4,0.2-0.7,0.2-1.1,0.4C47.2,111.3,46.5,112,46.5,112z
			 M50.8,115.9c-1-0.8-2.2-1.3-3-2.3c0.3-0.6,1-0.9,1.3-1.4c1.3,0.5,1.7,2,3,2.4C52.1,115.3,51.3,115.3,50.8,115.9z M48.3,109.3
			c0-0.2,0.6,0,0.5,0.5C48.6,109.8,48.6,109.3,48.3,109.3z M51.2,112.4c0.1,0.1-0.2,0-0.3-0.4C50.7,111.8,51.1,112.3,51.2,112.4z
			 M51.1,112c0.1-0.4,0.2,0.1,0.4,0.1c-0.3-1.6-1.4-2.4-2.5-3.3c-0.2,0-0.1,0.2,0,0.2c0.1,0,0.2,0.1,0.2,0.1c-0.1,0-0.2,0-0.2-0.1
			c-0.6-0.4-1.3-1.6-1.8-2.3c0.2,0,0.3,0,0.3-0.1c-0.3-0.8-0.8-1.2-1-1.8c-0.3-0.1-0.4,0-0.4,0.2c-0.7-0.8-1-2-1.8-2.7
			c0.1-0.3,0.4-0.1,0.5-0.4c-1.9-3.5-3-7.9-3.6-12.8c1,0.1,1.8,0.4,2.8,0.5c-0.1,0.1-0.2,0.2-0.3,0.4c0,0.4,0.9,0.3,1.1,0.1
			c-0.1-0.2-0.4-0.2-0.7-0.2c2.5,0.3,6.3,1.6,9.4,2c1.1,4,2.8,7.5,5.2,10.1c-1,1.9-2.1,3.7-3.6,5.1c0.3,1.1-1.2,1.4-1.2,2.5
			c0,0.4,0.4,0.4,0.5,0.7c-0.4,1.2-1.1,2.2-1.7,3.3C51.9,113.4,51.8,112.4,51.1,112z M55.2,119.7c-0.8-0.9-2.6-1.4-2.7-2.6
			c0.9,0.3,1.4,0.9,2.1,1.3c-0.4-0.7-0.8-1.2-1.6-1.3c0.3-2.7,2.6,1,3.8,1.1C56.4,118.8,55.8,119.3,55.2,119.7z M60.6,122.7
			c-1.5-0.4-3.3-0.9-3.2-2.5c0.6-0.3,0.9,0.6,1.5,0.6c0.2-0.9-0.8-0.6-1.2-0.9c-0.1-0.4,0.3-0.2,0.2-0.7c1.2,0.6,2.5,1,3.6,1.7
			C61.4,121.8,60.6,121.9,60.6,122.7z M66.2,124.8c-1.4-0.2-2.4-0.8-3.8-1.1c0.2-0.7,0.5-1.2,0.6-2c1.2,0.4,2.4,1,3.7,1.2
			C67.1,123.8,66.1,123.8,66.2,124.8z M71.9,126.3c-1.2-0.3-2.3-0.6-3.7-0.7c-0.2-1.1,0.3-1.4,0.4-2.2c1.3,0.3,2.4,0.7,3.8,0.8
			C72.5,125.1,71.8,125.2,71.9,126.3z M72.4,122.9c-1.4,0.1-2.2-0.5-3.5-0.5c0-0.4,0.4-0.3,0.2-0.8c-0.4-0.4-1.1-0.5-2-0.6
			c-0.3-0.1-0.1,0.4-0.1,0.6c-1.3-0.1-2.1-0.7-3.4-0.9c0-0.4,0.4-0.4,0.3-0.9c-0.4-0.6-1.2-0.7-1.9-0.9c-0.4,0-0.1,0.6-0.3,0.8
			c-1.1-0.4-2-1-3-1.5c0.1-0.3,0.3-0.5,0.4-0.7c-0.4-0.6-1.1-0.9-1.7-1.1c-0.3-0.1-0.3,0.2-0.4,0.5c-1-0.6-2.1-1.2-2.8-2.1
			c0.2-0.1,0.4-0.1,0.4-0.2c-0.2-0.5-0.7-0.7-1-1.1c3-2,6.4-4.7,9.7-6.8c3.4,2,6.6,4.2,11.4,4.6c0.5,1.3,1,2.6,1.4,4.3
			c0.3,1.2,0.5,2.5,0.8,3.7c0.3,1.3,1.2,2.7,0.6,4.2c-1.1,0-2.2-0.1-3.3-0.2c-0.1-0.4,0.2-0.4,0.1-0.7c-0.6-0.3-1.3-0.2-2-0.3
			C72.3,122.3,72.5,122.7,72.4,122.9z M77.7,126.7c-1.4,0.2-2.4-0.1-3.7-0.1c-0.3-0.7,0.2-1.2,0.1-2.1c1.3,0,2.5,0.3,3.9,0.2
			C78.3,125.5,77.7,125.6,77.7,126.7z M79.7,110.6c0.2,0.2,0.2,0.2-0.1,0.1c0.5,2.2,0,5.2,0.4,7.5c0,0.3,0.3,0.7,0.2,1
			c0.1,0.7-0.5,1.5,0.1,2c-0.3,0.1-0.1,0.7-0.3,0.9c0,0.4-0.1,1,0.2,1.3c-0.4,0.4-0.2-0.5-0.3-0.9c-0.9-1.3-0.7-3.9-1.7-5
			c0-1.2-0.3-2.3-0.8-3.3c-0.3-0.7-0.8-1.3-1-2c-0.1-0.4,0.2-1,0.1-1.5c-0.1-0.4-0.4-1.2-0.5-1.7c-0.2-0.6-0.7-1.8-1-2.7
			c-0.1-0.4,0-0.9-0.2-1.3c-0.1-0.4-0.5-0.9-0.7-1.3c-0.6-1.3-0.7-3.3-1.2-4.8c-0.1-0.4-0.4-0.7-0.5-1.1c-0.3-0.9,0-1.7-0.7-2.4
			c0.5-0.6,0-1-0.2-1.6c0.6-1.4,2.5-1.6,2.8-3.3c1.2,0,0.7-1.4,2-1.6c0.1-0.3,0.2-0.6,0.3-0.9c0.3-0.1,0.5-0.5,0.8-0.7
			c0.2-0.2,0.3-0.8,0.6-0.5c0.3,1.3,0.2,2.8,0.3,4.3c0.1,1.4,0.1,3.1,0.1,4.6c0.1,0.8,0.3,1.6,0.3,2.3c0,0.3-0.2,0.2-0.3,0.4
			c-0.1,0.9,0.4,2.3,0.3,3.2c-0.1,0.4,0.2,0.3,0.4,0.5c-0.4,0.6-0.2,2.2,0.1,3c-0.4,0.5-0.2,2,0.2,2.5
			C79.5,108.6,79.9,109.4,79.7,110.6z M83.7,126.3c-0.5-0.2,0.1-1.3,0-2C84,124.8,83.4,125.9,83.7,126.3z M83.4,113.6
			c0,0.2-0.3,0.4-0.3,0.7c-0.1,0.4,0,0.9,0,1.4c-0.2,1.4-1.2,2.7-0.9,4.2c0,0.3-0.4,0.3-0.5,0.5c0,0.3,0.2,0.3,0.2,0.7
			c-0.6,0.5-0.3,2.1-0.8,2.3c0.2-0.5-0.3-0.6-0.3-1.1c0.1-0.2,0.2-0.5,0.3-0.7c-0.4-1.3-0.2-2.6-0.1-4c0.1-0.3-0.1-0.5-0.4-0.5
			c0.2-0.2,0.2-0.6,0.3-0.9c-0.8-3.4,0.5-6.3-0.6-9.2c0.1,0.1,0.2,0.1,0.2-0.1c-0.2-1.2,0.1-2.1,0.1-2.9c0.1-0.3-0.3-0.2-0.2-0.4
			c-0.1-0.2,0.2-0.5,0.2-0.8c0-0.8-0.7-1.8-0.1-2.9c-0.1-0.3-0.2-0.1-0.5-0.1c-0.1-0.2,0.1-0.3,0.3-0.2c0-1.8-0.5-3.5-0.4-5.2
			c0-0.2,0.2-0.6,0.2-0.8c0-0.4-0.4-1.1-0.3-2c0-0.1,0.2-0.5,0.2-0.7c0-1-0.5-1.9-0.5-2.9c0,0.1,0.2,0.1,0.2-0.1
			c0.1-0.3-0.1-1.4-0.2-1.8c-0.1,0.4-0.3-0.4,0.1-0.1c0.9,1,1.9,1.9,3.1,2.8c0.4,1.8,2.2,2,2.9,3.4c0.8,0.2,1,1.1,1.7,1.5
			c-1,1.5-0.5,3.9-1.4,5.7c0,0.2,0.2,0.5,0.3,0.2c0.3,0.1-0.1,0.4-0.4,0.3c0.2,1.3-0.5,1.9-0.4,3.4c0,0.3-0.1,0.2-0.2,0.2
			c-0.1,0.9,0.2,2.1-0.5,2.4c0.3,1.9-1.1,3.3-0.7,5.7c-0.2,0.1-0.2-0.1-0.4-0.1C83.4,112.3,83.5,113,83.4,113.6z M89.5,125.3
			c-0.6,0.6-1.8,0.8-2.9,0.8c0.5-0.5-0.3-0.2-0.7-0.1c-0.3-0.5-0.2-1.4-0.5-2c1.3-0.4,2.7-0.5,3.9-1.1c0.2,1.3-0.1,0.8,0.2,1.9
			c-0.2,0.4-0.6,0.4-1.1,0.4C88.6,126,89.2,125.3,89.5,125.3z M92.8,124.5c0,0.4-0.4,0.5-1.1,0.5c-0.1-0.9-0.6-1.5-0.8-2.3
			c1.3-0.5,2.2-1.2,3.8-1.5c0.2,1,0.3,1.6,0.7,2.6C94.4,123.9,93.9,124.3,92.8,124.5z M93.5,119.5c-0.1,0.5,0.3,0.4,0.3,0.9
			c-1,0.4-1.7,1.1-3.1,1.2c0.1-0.4-0.1-0.4-0.2-0.7c-0.9-0.1-1.2,0.5-2.1,0.5c-0.1,0.6,0.3,0.6,0.3,1.1c-1.3,0.2-2.2,0.7-3.4,0.5
			l-0.1-0.7l-1.1,0c0.8-3.8,1.7-7.5,2.4-11.5c2.1-0.6,3.8-1.5,5.5-2.4c-1.5,0.4-3.3,1.6-5.4,1.8c0.6-1.5,0.3-3.9,1-5.3
			c-0.5-1.6,0.5-2.5,0.5-4.1c0.5,0.6,1.3,0.2,1.9,0.4c1.1,0.3,2.6,1.3,3.6,1.8c1.2,0.6,2.4,1.4,3.3,2.2l0.6,0c1.5,1.3,3.3,2.3,5,3.5
			c0.5,0.4,1,0.9,1.6,1.1c0-0.1,0-0.1-0.1-0.1c0.7,0.1,1.6,1,2.3,1.4c-0.4,0.7-1.2,1.1-1.5,1.9c-1-0.7-1.7,0.5-2.2,1
			c0,0.4,0.6,0.2,0.5,0.7c-1,0.5-1.4,1.6-2.7,2c0-0.7,0.9-0.6,1.1-1.1c-1.3,0.4-2.5,0.8-3.2,1.6c-0.1,0.5,0.3,0.6,0.5,0.7
			c-0.7,0.8-1.7,1.1-2.6,1.7C96,118.5,94.4,119,93.5,119.5z M97.4,122.8c0-0.8-1.1-1.4-1.1-2.5c1.1-0.5,2.2-1.1,3.3-1.9
			c0.5,0.9,0.4,1.6,1.3,2.5C100,121.7,98.6,122.2,97.4,122.8z M103.6,118.6c-0.5,1.3-2.4,0.1-2.5-1.3c1.2-0.5,1.9-1.6,3-2.2
			c0.1,0.3,0.4,0.5,0.6,0.8l-0.4,0c0.5,0.2,0.7,0.5,1,1.2C104.9,117.5,103.4,118.6,103.6,118.6z M106.9,115.4c-0.6-0.4-1-1-1.6-1.6
			c0.4-0.8,1.4-1.3,1.9-2.2c0.3,0.2,0.4,0.3,0.8,0.1c0.3-0.1-0.3-0.4-0.3-0.8c0.5-0.3,0.6,0.6,1.1,0.6c0,0.5,0,0.9,0.5,1
			C108.9,113.7,107.9,114.6,106.9,115.4z M110.8,110.9c-0.7-0.3-1.2-0.7-1.6-1.3c0.5-1.2,1.5-2.1,2-3.3c0.8,0.2,1.1,1.1,1.8,1.5
			C112.5,109.2,111.7,110.1,110.8,110.9z M112.2,104.9c0.5-1.2,1.2-2.2,1.7-3.4c1.1,0.1,1.3,1.1,2.4,1.2c-0.3,1.4-1,2.3-1.6,3.4
			C113.6,106,112.9,105.5,112.2,104.9z M115.6,106.8c-0.4,0.1-0.2-0.3-0.7-0.2c0.5-1.2,1.2-2.2,1.6-3.7c0.2-0.1,0.1,0.3,0.5,0.2
			C116.9,104.6,115.5,105.1,115.6,106.8z M119.2,98.5c-0.4,1-0.3,2.4-1.4,2.6c-1-0.5-2.3-0.7-3.2-1.3c0.3-1.4,1.2-2.2,1.3-3.7
			c0.8,0.3,1.5,0.8,2.1,1.2c0.3,0.1,1.1-0.3,1,0.2c0.5,0-0.1,0.5-0.1,0.7C118.9,98.5,119.1,98.5,119.2,98.5z M120.6,94.2
			c-0.2,0.4-0.1-0.5-0.2-0.7c-0.2,0.5-0.2,1.2-0.3,1.9c-1.3-0.2-2.6-0.3-3.7-0.7c0.1-1,0.3-1.8,0.4-2.8c0.2-0.1,0.1-0.4,0.3-0.1
			l0-1.1c1.2,0.2,1.5,1,3.1,0.7c0,0.6-0.2,1.1-0.2,1.7c0.6-0.2,0-1.6,0.8-1.6C120.8,92.4,120.7,93.3,120.6,94.2z M122,85.8
			c-0.2,0-0.1-0.3-0.5-0.2c0.4,1.4,0,2.6,0,4.1c-0.6,0.2-0.3-0.6-0.8-0.4c0.1-1.1,0.2-2.3,0.1-3.5c-0.3,1.1-0.2,2.5-0.2,3.8
			c-0.8-0.3-1.9,0.1-3-0.3c0-1,0.1-1.9,0-2.9c0.2,0,0.2,0.2,0.4,0.3l-0.1-0.8c1.4-0.3,2.3,0.2,3.9-0.4l0-0.4
			C122.4,84.9,122,85.5,122,85.8z"/>
	</g>
</g>
</svg>
